<svg width="376" height="96" viewBox="0 0 376 96" fill="none" xmlns="http://www.w3.org/2000/svg">
<path fill-rule="evenodd" clip-rule="evenodd" d="M127.551 15.5621C127.551 23.9934 120.716 30.8284 112.285 30.8284C103.853 30.8284 97.0186 23.9934 97.0186 15.5621C97.0186 7.13083 103.853 0.295898 112.285 0.295898C120.716 0.295898 127.551 7.13083 127.551 15.5621ZM212.565 42.2412H322.131C321.64 40.7427 321.374 39.1418 321.374 37.4789C321.374 29.0461 328.21 22.21 336.643 22.21C345.076 22.21 351.912 29.0461 351.912 37.4789C351.912 39.1418 351.646 40.7427 351.155 42.2412H375.052V95.2412H0.0517578V42.2412H29.8049C31.0298 29.2909 41.9342 19.1592 55.2051 19.1592C68.4759 19.1592 79.3804 29.2909 80.6053 42.2412H162.54C161.934 40.0424 161.61 37.7266 161.61 35.3353C161.61 21.0081 173.225 9.39355 187.552 9.39355C201.879 9.39355 213.494 21.0081 213.494 35.3353C213.494 37.7266 213.17 40.0424 212.565 42.2412ZM16.0938 30.8096C19.8524 30.8096 22.8994 27.7626 22.8994 24.0039C22.8994 20.2452 19.8524 17.1982 16.0938 17.1982C12.3351 17.1982 9.28809 20.2452 9.28809 24.0039C9.28809 27.7626 12.3351 30.8096 16.0938 30.8096ZM324.114 7.10156C324.114 10.8602 321.067 13.9072 317.308 13.9072C313.55 13.9072 310.503 10.8602 310.503 7.10156C310.503 3.3429 313.55 0.295898 317.308 0.295898C321.067 0.295898 324.114 3.3429 324.114 7.10156ZM259.055 36.6368C269.091 36.6368 277.226 28.5016 277.226 18.4664C277.226 8.4311 269.091 0.295898 259.055 0.295898C249.02 0.295898 240.885 8.4311 240.885 18.4664C240.885 28.5016 249.02 36.6368 259.055 36.6368Z" fill="url(#paint0_linear_969_6814)"/>
<defs>
<linearGradient id="paint0_linear_969_6814" x1="-40.4482" y1="107.325" x2="36.4187" y2="-130.695" gradientUnits="userSpaceOnUse">
<stop offset="0.025" stop-color="#FF62C0"/>
<stop offset="1" stop-color="#FFDC69"/>
</linearGradient>
</defs>
</svg>
