<svg width="16" height="14" viewBox="0 0 16 14" fill="none" xmlns="http://www.w3.org/2000/svg">
<path fill-rule="evenodd" clip-rule="evenodd" d="M2.60471 2.13568C2.06267 2.63679 1.6327 3.2317 1.33934 3.88644C1.04599 4.54117 0.895004 5.24291 0.895004 5.9516C0.895004 6.66028 1.04599 7.36202 1.33934 8.01676C1.6327 8.67149 2.06267 9.2664 2.60471 9.76751C3.14676 10.2686 3.79026 10.6661 4.49847 10.9373C5.20669 11.2085 5.96575 11.3481 6.73232 11.3481C7.49888 11.3481 8.25794 11.2085 8.96616 10.9373C9.67437 10.6661 10.3179 10.2686 10.8599 9.76751C11.9231 8.74985 12.5114 7.38686 12.4981 5.97209C12.4848 4.55733 11.871 3.20399 10.7888 2.20357C9.70668 1.20314 8.2428 0.635667 6.71248 0.623373C5.18216 0.611079 3.70783 1.15495 2.60705 2.13784M10.0358 9.00562C9.60399 9.41379 9.08888 9.73872 8.5203 9.96158C7.95172 10.1844 7.34097 10.3008 6.72341 10.304C6.10585 10.3071 5.49375 10.197 4.92255 9.97989C4.35136 9.76284 3.83241 9.44318 3.39576 9.03943C2.95911 8.63568 2.61344 8.15587 2.37875 7.62776C2.14406 7.09966 2.02503 6.53376 2.02854 5.96283C2.03205 5.39191 2.15804 4.8273 2.3992 4.30169C2.64036 3.77609 2.99192 3.29994 3.4335 2.9008C4.3125 2.10631 5.49495 1.66433 6.72424 1.67079C7.95353 1.67725 9.13046 2.13163 9.99964 2.93531C10.8688 3.73899 11.3601 4.82714 11.3669 5.9636C11.3736 7.10006 10.8953 8.19314 10.0358 9.00562Z" fill="#7C7770"/>
<path d="M10.0337 10.5521C9.81478 10.3496 9.69187 10.075 9.69198 9.78872C9.69209 9.50245 9.81521 9.22794 10.0342 9.02559C10.2533 8.82324 10.5503 8.70962 10.8599 8.70972C11.1696 8.70982 11.4665 8.82364 11.6854 9.02613L14.9865 12.0791C15.098 12.1786 15.187 12.2977 15.2481 12.4294C15.3093 12.561 15.3415 12.7026 15.3429 12.8459C15.3442 12.9892 15.3147 13.1313 15.256 13.2639C15.1973 13.3966 15.1106 13.5171 15.001 13.6184C14.8914 13.7197 14.7611 13.7998 14.6176 13.8541C14.4742 13.9084 14.3205 13.9357 14.1655 13.9344C14.0105 13.9332 13.8573 13.9034 13.7149 13.8469C13.5725 13.7903 13.4437 13.7081 13.336 13.605L10.0337 10.5521Z" fill="#7C7770"/>
</svg>
