<svg width="24" height="23" viewBox="0 0 24 23" fill="none" xmlns="http://www.w3.org/2000/svg">
<path fill-rule="evenodd" clip-rule="evenodd" d="M12.0342 0.365234C13.9278 0.365234 15.4628 1.93224 15.4628 3.86523C15.4628 5.79823 13.9278 7.36523 12.0342 7.36523C10.1406 7.36523 8.60561 5.79823 8.60561 3.86523C8.60561 1.93224 10.1406 0.365234 12.0342 0.365234ZM5.74943 14.3652C5.74882 14.3652 5.74833 14.3657 5.74833 14.3663V15.3319C5.74833 15.4423 5.65878 15.5319 5.54833 15.5319H1.46261C0.989229 15.5319 0.605469 15.1401 0.605469 14.6569V10.5735C0.605469 9.50229 1.41359 8.62379 2.44143 8.53863L2.60547 8.53186L6.05033 8.53088C6.21861 8.53083 6.3158 8.72958 6.2278 8.87302C5.96712 9.29793 5.80124 9.78966 5.76041 10.3173L5.75053 10.5735V14.3641C5.75053 14.3647 5.75004 14.3652 5.74943 14.3652ZM23.4627 10.5735C23.4627 9.44594 22.5672 8.53186 21.4627 8.53186L18.0246 8.53088C17.8563 8.53083 17.7591 8.72955 17.8471 8.87298C18.1496 9.36599 18.3244 9.94887 18.3244 10.5735V12.0296C18.3244 12.0308 18.3234 12.0319 18.3221 12.0319C18.3208 12.0319 18.3198 12.0329 18.3198 12.0341V15.3319C18.3198 15.4423 18.4094 15.5319 18.5198 15.5319H22.6055C23.0789 15.5319 23.4627 15.1401 23.4627 14.6569V10.5735ZM15.1816 8.53183C16.2862 8.53183 17.1816 9.44591 17.1816 10.5735V14.3629C17.1816 14.3641 17.1806 14.3652 17.1793 14.3652C17.1787 14.3652 17.178 14.3655 17.1776 14.3659C17.1773 14.3663 17.177 14.3669 17.177 14.3674V15.3318C17.177 15.4423 17.0875 15.5318 16.977 15.5318H7.09132C6.98087 15.5318 6.89132 15.4423 6.89132 15.3318V12.0329L6.89149 12.0323C6.89169 12.032 6.89203 12.0318 6.89243 12.0318C6.89303 12.0318 6.89353 12.0313 6.89353 12.0307V10.5735C6.89353 9.44591 7.78896 8.53183 8.89353 8.53183H15.1816ZM22.32 4.4485C22.32 2.83767 21.0408 1.53183 19.4629 1.53183C17.8849 1.53183 16.6057 2.83767 16.6057 4.4485C16.6057 6.05932 17.8849 7.36516 19.4629 7.36516C21.0408 7.36516 22.32 6.05932 22.32 4.4485ZM4.60561 1.53183C6.18356 1.53183 7.46275 2.83767 7.46275 4.4485C7.46275 6.05932 6.18356 7.36516 4.60561 7.36516C3.02765 7.36516 1.74847 6.05932 1.74847 4.4485C1.74847 2.83767 3.02765 1.53183 4.60561 1.53183ZM1.46261 16.6986C0.989229 16.6986 0.605469 17.0904 0.605469 17.5736V18.157C0.605469 20.5733 2.52425 22.532 4.89118 22.532H19.1769C21.5439 22.532 23.4626 20.5733 23.4626 18.157V17.5736C23.4626 17.0904 23.0788 16.6986 22.6055 16.6986H1.46261Z" fill="url(#paint0_linear_1001_4267)"/>
<defs>
<linearGradient id="paint0_linear_1001_4267" x1="-1.86311" y1="25.3532" x2="28.1387" y2="1.09913" gradientUnits="userSpaceOnUse">
<stop offset="0.025" stop-color="#FF62C0"/>
<stop offset="1" stop-color="#FFDC69"/>
</linearGradient>
</defs>
</svg>
