<svg width="21" height="20" viewBox="0 0 21 20" fill="none" xmlns="http://www.w3.org/2000/svg">
<path d="M5.08984 3.91456C4.17318 4.6479 3.44418 5.55223 2.90284 6.62756C2.36151 7.7029 2.09051 8.87356 2.08984 10.1396C2.08984 12.0562 2.67318 13.7272 3.83984 15.1526C5.00651 16.5779 6.48151 17.4986 8.26484 17.9146C8.51484 17.9812 8.71484 18.1272 8.86484 18.3526C9.01484 18.5779 9.08984 18.8236 9.08984 19.0896C9.08984 19.3556 8.99818 19.5806 8.81484 19.7646C8.63151 19.9486 8.42318 20.0152 8.18984 19.9646C5.85651 19.5312 3.92318 18.4022 2.38984 16.5776C0.856511 14.7529 0.0898438 12.6069 0.0898438 10.1396C0.0898438 8.6229 0.394177 7.2229 1.00284 5.93956C1.61151 4.65623 2.44051 3.55623 3.48984 2.63956H2.08984C1.80651 2.63956 1.56918 2.54356 1.37784 2.35156C1.18651 2.15956 1.09051 1.92223 1.08984 1.63956C1.08918 1.3569 1.18518 1.11956 1.37784 0.927564C1.57051 0.735564 1.80784 0.639564 2.08984 0.639564H6.08984C6.37318 0.639564 6.61084 0.735564 6.80284 0.927564C6.99484 1.11956 7.09051 1.3569 7.08984 1.63956V5.63956C7.08984 5.9229 6.99384 6.16056 6.80184 6.35256C6.60984 6.54456 6.37251 6.64023 6.08984 6.63956C5.80718 6.6389 5.56984 6.5429 5.37784 6.35156C5.18584 6.16023 5.08984 5.9229 5.08984 5.63956V3.91456ZM8.66484 11.9146L13.6398 6.93956C13.8398 6.73956 14.0732 6.64356 14.3398 6.65156C14.6065 6.65956 14.8398 6.7639 15.0398 6.96456C15.2232 7.16456 15.3192 7.3979 15.3278 7.66456C15.3365 7.93123 15.2405 8.16456 15.0398 8.36456L9.36484 14.0396C9.16484 14.2396 8.93151 14.3396 8.66484 14.3396C8.39818 14.3396 8.16484 14.2396 7.96484 14.0396L5.13984 11.1896C4.95651 11.0062 4.86084 10.7772 4.85284 10.5026C4.84484 10.2279 4.94051 9.99023 5.13984 9.78956C5.32318 9.60623 5.55651 9.51456 5.83984 9.51456C6.12318 9.51456 6.35651 9.60623 6.53984 9.78956L8.66484 11.9146ZM16.6898 17.6396H18.0898C18.3732 17.6396 18.6108 17.7356 18.8028 17.9276C18.9948 18.1196 19.0905 18.3569 19.0898 18.6396C19.0892 18.9222 18.9932 19.1599 18.8018 19.3526C18.6105 19.5452 18.3732 19.6409 18.0898 19.6396H14.0898C13.8065 19.6396 13.5692 19.5436 13.3778 19.3516C13.1865 19.1596 13.0905 18.9222 13.0898 18.6396V14.6396C13.0898 14.3562 13.1858 14.1189 13.3778 13.9276C13.5698 13.7362 13.8072 13.6402 14.0898 13.6396C14.3725 13.6389 14.6102 13.7349 14.8028 13.9276C14.9955 14.1202 15.0912 14.3576 15.0898 14.6396V16.3646C16.0065 15.6146 16.7358 14.7062 17.2778 13.6396C17.8198 12.5729 18.0905 11.4062 18.0898 10.1396C18.0898 8.2229 17.5065 6.55223 16.3398 5.12756C15.1732 3.7029 13.6982 2.7819 11.9148 2.36456C11.6648 2.2979 11.4648 2.15223 11.3148 1.92756C11.1648 1.7029 11.0898 1.4569 11.0898 1.18956C11.0898 0.92223 11.1815 0.69723 11.3648 0.514564C11.5482 0.331897 11.7565 0.26523 11.9898 0.314564C14.3232 0.747897 16.2565 1.87723 17.7898 3.70256C19.3232 5.5279 20.0898 7.67356 20.0898 10.1396C20.0898 11.6562 19.7855 13.0562 19.1768 14.3396C18.5682 15.6229 17.7392 16.7229 16.6898 17.6396Z" fill="black"/>
</svg>
