<svg width="27" height="25" viewBox="0 0 27 25" fill="none" xmlns="http://www.w3.org/2000/svg">
<path d="M22.2346 14.3291C22.4555 14.3291 22.6346 14.5082 22.6346 14.7291V17.7183C22.6346 17.9392 22.8137 18.1183 23.0346 18.1183H26.134C26.3549 18.1183 26.534 18.2974 26.534 18.5183V20.2444C26.534 20.4653 26.3549 20.6444 26.134 20.6444H23.0346C22.8137 20.6444 22.6346 20.8235 22.6346 21.0444V24.0336C22.6346 24.2545 22.4555 24.4336 22.2346 24.4336H20.4349C20.214 24.4336 20.0349 24.2545 20.0349 24.0336V21.0444C20.0349 20.8235 19.8559 20.6444 19.6349 20.6444H16.5355C16.3146 20.6444 16.1355 20.4653 16.1355 20.2444V18.5183C16.1355 18.2974 16.3146 18.1183 16.5355 18.1183H19.6349C19.8559 18.1183 20.0349 17.9392 20.0349 17.7183V14.7291C20.0349 14.5082 20.214 14.3291 20.4349 14.3291H22.2346ZM24.2502 2.65471C25.5913 3.9575 26.3979 5.69044 26.5192 7.52931C26.6334 9.26103 26.1325 10.975 25.1058 12.3869C24.9945 12.54 24.7885 12.5837 24.616 12.506C23.2143 11.8741 21.6484 11.6601 20.1173 11.8951C18.4785 12.1466 16.9649 12.8994 15.7966 14.0441C14.6283 15.1888 13.8661 16.6658 13.6208 18.2603C13.3908 19.7554 13.6266 21.2809 14.294 22.6414C14.3728 22.8021 14.3441 22.9966 14.2158 23.1214L13.8148 23.5116C13.6596 23.6628 13.4122 23.6627 13.2569 23.5116L2.51474 13.0572C1.18796 11.6123 0.480796 9.72853 0.53842 7.79281C0.596045 5.85708 1.41409 4.01623 2.82461 2.64818C4.23513 1.28014 6.1311 0.488704 8.12326 0.436365C9.99785 0.387115 11.8238 0.995805 13.2697 2.14428C13.4259 2.26836 13.6485 2.26843 13.8048 2.14444C15.2515 0.996645 17.0779 0.388952 18.9527 0.439346C20.945 0.492901 22.8406 1.28561 24.2502 2.65471Z" fill="url(#paint0_linear_1001_1079)"/>
<defs>
<linearGradient id="paint0_linear_1001_1079" x1="-2.27284" y1="27.4881" x2="30.5095" y2="-0.354974" gradientUnits="userSpaceOnUse">
<stop offset="0.025" stop-color="#FF62C0"/>
<stop offset="1" stop-color="#FFDC69"/>
</linearGradient>
</defs>
</svg>
