<svg width="17" height="17" viewBox="0 0 17 17" fill="none" xmlns="http://www.w3.org/2000/svg">
<path d="M8.39002 16.1502C8.39002 15.8182 8.66608 15.5516 8.99674 15.5213C9.37557 15.4866 9.7187 15.7709 9.7187 16.1513V16.2092C9.7187 16.5257 9.49049 16.7992 9.17583 16.8334C9.13509 16.8378 9.09427 16.842 9.05336 16.8458C8.68804 16.8799 8.39002 16.5803 8.39002 16.2134V16.1502ZM8.39002 0.933594C3.9941 0.933594 0.417969 4.50972 0.417969 8.90565C0.417969 11.4064 1.57829 13.6371 3.38659 15.0984C3.81337 15.4433 4.404 15.1112 4.404 14.5625C4.404 14.3391 4.29753 14.1305 4.12646 13.9868C2.67493 12.7676 1.74664 10.9455 1.74664 8.90565C1.74664 5.24249 4.72686 2.26227 8.39002 2.26227C12.0532 2.26227 15.0334 5.24249 15.0334 8.90565C15.0334 10.3038 14.5939 11.5983 13.8526 12.6691C13.7591 12.8042 13.7047 12.9632 13.7047 13.1274C13.7047 13.7848 14.4572 14.1002 14.8438 13.5684C15.797 12.2574 16.3621 10.6476 16.3621 8.90565C16.3621 4.50972 12.7859 0.933594 8.39002 0.933594ZM11.4513 6.40043C10.8275 6.96512 9.79975 8.41138 9.72003 10.4542C9.69609 11.5007 9.98233 12.6555 10.8271 13.8002C10.9646 13.9865 11.0474 14.2094 11.0474 14.4409V16.2134C11.0474 16.5803 11.3448 16.8777 11.7117 16.8777C12.0786 16.8777 12.376 16.5803 12.376 16.2134V6.73791C12.3734 6.32004 11.8067 6.07025 11.4513 6.40043ZM9.05436 9.90215V6.91263C9.05436 6.54573 8.75693 6.2483 8.39002 6.2483C8.02312 6.2483 7.72568 6.54573 7.72568 6.91263V9.90215C7.72568 10.0855 7.57687 10.2343 7.39352 10.2343C7.21006 10.2343 7.06135 10.0856 7.06135 9.90215V6.91263C7.06135 6.54573 6.76391 6.2483 6.39701 6.2483C6.03011 6.2483 5.73267 6.54573 5.73267 6.91263V9.90215C5.73267 10.0856 5.58395 10.2343 5.4005 10.2343C5.21714 10.2343 5.06833 10.0855 5.06833 9.90215V6.91263C5.06833 6.54573 4.7709 6.2483 4.404 6.2483C4.03709 6.2483 3.73966 6.54573 3.73966 6.91263V9.90215C3.73966 10.8176 4.48504 11.563 5.4005 11.563C5.58395 11.563 5.73267 11.7117 5.73267 11.8952V16.2134C5.73267 16.5803 6.03011 16.8777 6.39701 16.8777C6.76391 16.8777 7.06135 16.5803 7.06135 16.2134V11.8952C7.06135 11.7117 7.21006 11.563 7.39352 11.563C8.30897 11.563 9.05436 10.8176 9.05436 9.90215Z" fill="black"/>
</svg>
