<svg width="15" height="15" viewBox="0 0 15 15" fill="none" xmlns="http://www.w3.org/2000/svg">
<path d="M7.50004 0.624756C11.1941 0.624756 14.1886 3.75866 14.1886 7.62476C14.1886 11.4909 11.1941 14.6248 7.50004 14.6248C3.80597 14.6248 0.811523 11.4909 0.811523 7.62476C0.811523 3.75866 3.80597 0.624756 7.50004 0.624756ZM7.50004 2.02476C6.08092 2.02476 4.71992 2.61475 3.71644 3.66496C2.71297 4.71516 2.14923 6.13954 2.14923 7.62476C2.14923 9.10997 2.71297 10.5344 3.71644 11.5846C4.71992 12.6348 6.08092 13.2248 7.50004 13.2248C8.91916 13.2248 10.2802 12.6348 11.2836 11.5846C12.2871 10.5344 12.8509 9.10997 12.8509 7.62476C12.8509 6.13954 12.2871 4.71516 11.2836 3.66496C10.2802 2.61475 8.91916 2.02476 7.50004 2.02476ZM7.50004 3.42476C7.66386 3.42478 7.82198 3.48772 7.94441 3.60166C8.06683 3.71559 8.14504 3.87258 8.16421 4.04286L8.16889 4.12476V7.33496L9.97947 9.22986C10.0994 9.35583 10.1691 9.52486 10.1743 9.70262C10.1794 9.88039 10.1198 10.0536 10.0074 10.187C9.89501 10.3203 9.73832 10.404 9.56915 10.4208C9.39998 10.4377 9.23102 10.3865 9.09659 10.2778L9.03372 10.2197L7.02716 8.11966C6.92321 8.01077 6.85645 7.86906 6.83721 7.71645L6.83119 7.62476V4.12476C6.83119 3.9391 6.90166 3.76106 7.02709 3.62978C7.15253 3.49851 7.32265 3.42476 7.50004 3.42476Z" fill="black"/>
</svg>
