<svg width="13" height="13" viewBox="0 0 13 13" fill="none" xmlns="http://www.w3.org/2000/svg">
<path d="M12.146 6.37276L6.746 0.972756C6.524 0.750756 6.218 0.624756 5.9 0.624756H1.7C1.38174 0.624756 1.07652 0.751184 0.851472 0.976228C0.626428 1.20127 0.5 1.5065 0.5 1.82476V6.02476C0.5 6.34276 0.626 6.64876 0.854 6.87076L0.989642 7.00309C1.05467 7.06654 1.15401 7.0776 1.23403 7.03457C1.74207 6.76136 2.31597 6.62476 2.9 6.62476C3.85478 6.62476 4.77045 7.00404 5.44558 7.67917C6.12072 8.3543 6.5 9.26998 6.5 10.2248C6.5 10.8088 6.35835 11.3776 6.08433 11.8894C6.04119 11.97 6.05323 12.07 6.11787 12.1346L6.248 12.2648C6.47 12.4928 6.782 12.6248 7.1 12.6248C7.418 12.6248 7.724 12.4988 7.946 12.2708L12.146 8.07076C12.374 7.84876 12.5 7.54276 12.5 7.22476C12.5 6.90676 12.374 6.60076 12.146 6.37276ZM2.6 3.62476C2.36131 3.62476 2.13239 3.52993 1.9636 3.36115C1.79482 3.19237 1.7 2.96345 1.7 2.72476C1.7 2.48606 1.79482 2.25714 1.9636 2.08836C2.13239 1.91958 2.36131 1.82476 2.6 1.82476C2.8387 1.82476 3.06761 1.91958 3.2364 2.08836C3.40518 2.25714 3.5 2.48606 3.5 2.72476C3.5 2.96345 3.40518 3.19237 3.2364 3.36115C3.06761 3.52993 2.8387 3.62476 2.6 3.62476ZM5.3 10.6248C5.3 10.7352 5.21046 10.8248 5.1 10.8248H3.7C3.58954 10.8248 3.5 10.9143 3.5 11.0248V12.4248C3.5 12.5352 3.41046 12.6248 3.3 12.6248H2.5C2.38954 12.6248 2.3 12.5352 2.3 12.4248V11.0248C2.3 10.9143 2.21046 10.8248 2.1 10.8248H0.7C0.589543 10.8248 0.5 10.7352 0.5 10.6248V9.82476C0.5 9.7143 0.589543 9.62476 0.7 9.62476H2.1C2.21046 9.62476 2.3 9.53521 2.3 9.42476V8.02476C2.3 7.9143 2.38954 7.82476 2.5 7.82476H3.3C3.41046 7.82476 3.5 7.9143 3.5 8.02476V9.42476C3.5 9.53521 3.58954 9.62476 3.7 9.62476H5.1C5.21046 9.62476 5.3 9.7143 5.3 9.82476V10.6248Z" fill="black"/>
</svg>
