<svg width="11" height="21" viewBox="0 0 11 21" fill="none" xmlns="http://www.w3.org/2000/svg">
<path fill-rule="evenodd" clip-rule="evenodd" d="M9.20243 3.84961C9.20243 1.91662 7.66746 0.349609 5.77386 0.349609C3.88026 0.349609 2.34528 1.91662 2.34528 3.84961C2.34528 5.7826 3.88026 7.34961 5.77386 7.34961C7.66746 7.34961 9.20243 5.7826 9.20243 3.84961ZM10.9192 12.5609C10.9192 10.6493 10.0238 9.09961 8.91919 9.09961H2.63111C1.52654 9.09961 0.631112 10.6493 0.631112 12.5609V15.0321C0.631112 15.0327 0.630618 15.0332 0.630009 15.0332C0.6294 15.0332 0.628906 15.0337 0.628906 15.0343V20.6105C0.628906 20.7154 0.675066 20.8149 0.755095 20.8825C0.819411 20.9369 0.900922 20.9668 0.985158 20.9668H10.5426C10.6221 20.9668 10.6995 20.9413 10.7634 20.8942C10.8585 20.824 10.9146 20.7129 10.9146 20.5948V18.9912C10.9146 18.99 10.9156 18.9889 10.9169 18.9889C10.9182 18.9889 10.9192 18.9879 10.9192 18.9866V12.5609Z" fill="url(#paint0_linear_1001_1740)"/>
<defs>
<linearGradient id="paint0_linear_1001_1740" x1="-0.482445" y1="23.5908" x2="18.8859" y2="16.0119" gradientUnits="userSpaceOnUse">
<stop offset="0.025" stop-color="#FF62C0"/>
<stop offset="1" stop-color="#FFDC69"/>
</linearGradient>
</defs>
</svg>
