<svg width="25" height="25" viewBox="0 0 25 25" fill="none" xmlns="http://www.w3.org/2000/svg">
<path d="M16.5312 11.2012C16.5312 13.6912 14.5212 15.7012 12.0312 15.7012C9.54125 15.7012 7.53125 13.6912 7.53125 11.2012C7.53125 8.71117 9.54125 6.70117 12.0312 6.70117C14.5212 6.70117 16.5312 8.71117 16.5312 11.2012Z" fill="black"/>
<path fill-rule="evenodd" clip-rule="evenodd" d="M24.0312 12.7012C24.0312 19.3312 18.6613 24.7012 12.0312 24.7012C5.40125 24.7012 0.03125 19.3312 0.03125 12.7012C0.03125 6.07117 5.40125 0.701172 12.0312 0.701172C18.6613 0.701172 24.0312 6.07117 24.0312 12.7012ZM6.03125 21.3262C6.27125 20.9272 8.59625 17.2012 12.0162 17.2012C15.4212 17.2012 17.7612 20.9362 18.0012 21.3262C19.3961 20.3617 20.5357 19.0728 21.3222 17.5704C22.1087 16.0679 22.5184 14.397 22.5163 12.7012C22.5163 6.89617 17.8212 2.20117 12.0162 2.20117C6.21125 2.20117 1.51625 6.89617 1.51625 12.7012C1.51625 16.2712 3.30125 19.4362 6.03125 21.3262Z" fill="black"/>
</svg>
