<svg width="11" height="11" viewBox="0 0 11 11" fill="none" xmlns="http://www.w3.org/2000/svg">
<path d="M5.34375 9.97734C5.34375 9.76908 5.51689 9.60189 5.72428 9.58289V9.58289C5.96188 9.56112 6.17708 9.73942 6.17708 9.97801V10.0143C6.17708 10.2128 6.03395 10.3843 5.8366 10.4058C5.81105 10.4086 5.78545 10.4112 5.75979 10.4136C5.53067 10.435 5.34375 10.247 5.34375 10.0169V9.97734ZM5.34375 0.433594C2.58667 0.433594 0.34375 2.67651 0.34375 5.43359C0.34375 7.00204 1.07149 8.4011 2.20564 9.31765C2.47331 9.53396 2.84375 9.32566 2.84375 8.98151V8.98151C2.84375 8.8414 2.77698 8.71056 2.66968 8.62044C1.7593 7.85578 1.17708 6.71298 1.17708 5.43359C1.17708 3.13609 3.04625 1.26693 5.34375 1.26693C7.64125 1.26693 9.51042 3.13609 9.51042 5.43359C9.51042 6.31053 9.23479 7.12241 8.76982 7.79401C8.71119 7.8787 8.67708 7.97843 8.67708 8.08144V8.08144C8.67708 8.49378 9.14901 8.69156 9.39149 8.35805C9.98937 7.53576 10.3437 6.52612 10.3437 5.43359C10.3437 2.67651 8.10083 0.433594 5.34375 0.433594ZM7.26375 3.86234C6.8725 4.21651 6.22792 5.12359 6.17792 6.40484C6.16426 7.00177 6.31152 7.65488 6.73685 8.30831C6.89988 8.55878 7.01042 8.84404 7.01042 9.1429V10.0169C7.01042 10.247 7.19696 10.4336 7.42708 10.4336V10.4336C7.6572 10.4336 7.84375 10.247 7.84375 10.0169V4.07401C7.84208 3.81193 7.48667 3.65526 7.26375 3.86234ZM5.76042 6.05859V4.18359C5.76042 3.95348 5.57387 3.76693 5.34375 3.76693V3.76693C5.11363 3.76693 4.92708 3.95348 4.92708 4.18359V6.05859C4.92708 6.17359 4.83375 6.26693 4.71875 6.26693V6.26693C4.60369 6.26693 4.51042 6.17365 4.51042 6.05859V4.18359C4.51042 3.95348 4.32387 3.76693 4.09375 3.76693V3.76693C3.86363 3.76693 3.67708 3.95348 3.67708 4.18359V6.05859C3.67708 6.17365 3.58381 6.26693 3.46875 6.26693V6.26693C3.35375 6.26693 3.26042 6.17359 3.26042 6.05859V4.18359C3.26042 3.95348 3.07387 3.76693 2.84375 3.76693V3.76693C2.61363 3.76693 2.42708 3.95348 2.42708 4.18359V6.05859C2.42708 6.63276 2.89458 7.10026 3.46875 7.10026V7.10026C3.58381 7.10026 3.67708 7.19353 3.67708 7.30859V10.0169C3.67708 10.247 3.86363 10.4336 4.09375 10.4336V10.4336C4.32387 10.4336 4.51042 10.247 4.51042 10.0169V7.30859C4.51042 7.19353 4.60369 7.10026 4.71875 7.10026V7.10026C5.29292 7.10026 5.76042 6.63276 5.76042 6.05859Z" fill="white"/>
</svg>
