<svg width="14" height="14" viewBox="0 0 14 14" fill="none" xmlns="http://www.w3.org/2000/svg">
<path d="M4.45814 10.0853L5.60272 9.75514L12.4943 2.78105C12.5486 2.72535 12.5789 2.6505 12.5785 2.57267C12.5782 2.49483 12.5472 2.42027 12.4923 2.36508L12.0796 1.9478C12.0529 1.9204 12.0211 1.89858 11.9859 1.88362C11.9507 1.86867 11.9129 1.86087 11.8746 1.86069C11.8364 1.86051 11.7985 1.86794 11.7631 1.88257C11.7278 1.89719 11.6957 1.9187 11.6688 1.94585L4.79547 8.90174L4.45814 10.0853ZM12.8966 1.12105L13.3093 1.53898C13.8787 2.11549 13.8839 3.04559 13.3197 3.61625L6.21824 10.8035L3.77178 11.5081C3.69782 11.5289 3.62049 11.5349 3.5442 11.5258C3.46792 11.5167 3.39417 11.4927 3.32718 11.4551C3.26018 11.4175 3.20125 11.367 3.15375 11.3067C3.10624 11.2463 3.0711 11.1771 3.05032 11.1032C3.01845 10.9959 3.01799 10.8818 3.04902 10.7743L3.76073 8.27843L10.8434 1.11C10.978 0.974391 11.1384 0.866955 11.315 0.793958C11.4916 0.720961 11.681 0.683865 11.8722 0.684833C12.0633 0.685801 12.2523 0.724814 12.4282 0.799596C12.6041 0.874378 12.7633 0.984083 12.8966 1.12105ZM5.40968 1.87046C5.73206 1.87046 5.99335 2.13499 5.99335 2.46127C5.99386 2.5384 5.97917 2.61488 5.95011 2.68632C5.92104 2.75777 5.87818 2.82279 5.82398 2.87766C5.76977 2.93253 5.70528 2.97618 5.63419 3.00611C5.5631 3.03604 5.48681 3.05166 5.40968 3.05209H3.07502C2.43026 3.05209 1.90769 3.58116 1.90769 4.23307V11.3216C1.90769 11.9741 2.43026 12.5032 3.07502 12.5032H10.079C10.7238 12.5032 11.247 11.9741 11.247 11.3216V8.95894C11.247 8.63266 11.5083 8.36813 11.8307 8.36813C12.153 8.36813 12.4143 8.63266 12.4143 8.95959V11.3216C12.4143 12.6267 11.3685 13.6848 10.079 13.6848H3.07502C1.7855 13.6848 0.740356 12.6267 0.740356 11.3216V4.23307C0.740356 2.92859 1.7855 1.87046 3.07502 1.87046H5.40968Z" fill="black"/>
</svg>
