<svg width="26" height="24" viewBox="0 0 26 24" fill="none" xmlns="http://www.w3.org/2000/svg">
<path d="M21.6904 13.8955C21.9113 13.8955 22.0904 14.0746 22.0904 14.2955V17.2847C22.0904 17.5056 22.2695 17.6847 22.4904 17.6847H25.5898C25.8107 17.6847 25.9898 17.8638 25.9898 18.0847V19.8108C25.9898 20.0317 25.8107 20.2108 25.5898 20.2108H22.4904C22.2695 20.2108 22.0904 20.3899 22.0904 20.6108V23.6C22.0904 23.8209 21.9113 24 21.6904 24H19.8908C19.6698 24 19.4908 23.8209 19.4908 23.6V20.6108C19.4908 20.3899 19.3117 20.2108 19.0908 20.2108H15.9913C15.7704 20.2108 15.5913 20.0317 15.5913 19.8108V18.0847C15.5913 17.8638 15.7704 17.6847 15.9913 17.6847H19.0908C19.3117 17.6847 19.4908 17.5056 19.4908 17.2847V14.2955C19.4908 14.0746 19.6698 13.8955 19.8908 13.8955H21.6904ZM23.7061 2.22112C25.0471 3.52391 25.8537 5.25684 25.975 7.09571C26.0892 8.82744 25.5883 10.5414 24.5616 11.9533C24.4503 12.1064 24.2443 12.1501 24.0718 12.0724C22.6701 11.4405 21.1042 11.2265 19.5731 11.4615C17.9343 11.713 16.4207 12.4658 15.2524 13.6105C14.0841 14.7553 13.3219 16.2322 13.0766 17.8267C12.8467 19.3218 13.0824 20.8473 13.7498 22.2078C13.8287 22.3685 13.8 22.563 13.6717 22.6878L13.2707 23.078C13.1154 23.2292 12.868 23.2292 12.7127 23.078L1.97055 12.6237C0.643774 11.1787 -0.0633939 9.29494 -0.005769 7.35921C0.0518558 5.42348 0.869901 3.58263 2.28042 2.21459C3.69094 0.846544 5.58691 0.0551106 7.57907 0.0027712C9.45366 -0.046479 11.2796 0.562211 12.7255 1.71069C12.8817 1.83477 13.1043 1.83483 13.2606 1.71084C14.7073 0.563051 16.5338 -0.0446421 18.4085 0.00575215C20.4008 0.0593069 22.2964 0.852019 23.7061 2.22112Z" fill="#D9D9D9"/>
</svg>
