<svg width="24" height="25" viewBox="0 0 24 25" fill="none" xmlns="http://www.w3.org/2000/svg">
<g clip-path="url(#clip0_397_13801)">
<path d="M23.4199 15.2667H22.1395L23.2748 14.1313C23.365 14.038 23.4149 13.9129 23.4138 13.7831C23.4127 13.6532 23.3606 13.5291 23.2688 13.4373C23.177 13.3455 23.0528 13.2934 22.923 13.2923C22.7932 13.2911 22.6681 13.341 22.5747 13.4312L21.4394 14.5666V13.2861C21.4394 13.1548 21.3872 13.0289 21.2944 12.936C21.2015 12.8432 21.0756 12.791 20.9442 12.791C20.8129 12.791 20.687 12.8432 20.5941 12.936C20.5013 13.0289 20.4491 13.1548 20.4491 13.2861V15.4925C20.0438 15.061 19.5654 14.7046 19.036 14.4398C18.6643 14.2758 18.2492 14.2378 17.8539 14.3315C17.4586 14.4251 17.1047 14.6454 16.846 14.9587C15.9756 15.8291 13.5494 20.2779 12.1804 22.8516C12.0601 23.0858 12.0172 23.3521 12.0579 23.6122C12.0987 23.8723 12.221 24.1128 12.4071 24.2989C12.5933 24.4851 12.8337 24.6074 13.0938 24.6481C13.3539 24.6888 13.6203 24.646 13.8544 24.5256C16.4291 23.1571 20.8769 20.7305 21.7473 19.86C22.0606 19.6014 22.2808 19.2477 22.3745 18.8525C22.4683 18.4573 22.4304 18.0423 22.2667 17.6705C22.0016 17.1411 21.6451 16.6625 21.2136 16.2569H23.4199C23.5512 16.2569 23.6772 16.2048 23.77 16.1119C23.8629 16.0191 23.915 15.8931 23.915 15.7618C23.915 15.6305 23.8629 15.5046 23.77 15.4117C23.6772 15.3188 23.5512 15.2667 23.4199 15.2667ZM21.0472 19.1599C20.6932 19.4628 20.3133 19.734 19.9119 19.9704L18.8186 18.8777C18.7253 18.7875 18.6002 18.7376 18.4704 18.7387C18.3405 18.7398 18.2164 18.7919 18.1246 18.8837C18.0328 18.9755 17.9807 19.0997 17.9796 19.2295C17.9784 19.3593 18.0283 19.4844 18.1185 19.5778L19.0444 20.5032C17.6848 21.3167 15.7325 22.4055 13.3895 23.6512C13.3427 23.6761 13.2892 23.6852 13.2368 23.6774C13.1844 23.6695 13.1359 23.645 13.0985 23.6076C13.061 23.5701 13.0365 23.5216 13.0287 23.4693C13.0208 23.4169 13.03 23.3633 13.0548 23.3165C13.8084 21.9 14.5021 20.6309 15.1146 19.5446L16.138 20.5681C16.2314 20.6582 16.3564 20.7082 16.4863 20.707C16.6161 20.7059 16.7403 20.6538 16.8321 20.562C16.9239 20.4702 16.976 20.346 16.9771 20.2162C16.9782 20.0864 16.9283 19.9613 16.8381 19.8679L15.6221 18.6519C16.1618 17.7166 16.6153 16.9684 16.9634 16.4421L18.1185 17.5973C18.2119 17.6875 18.337 17.7374 18.4668 17.7362C18.5966 17.7351 18.7208 17.683 18.8126 17.5912C18.9044 17.4994 18.9565 17.3752 18.9576 17.2454C18.9587 17.1156 18.9088 16.9905 18.8186 16.8971L17.5645 15.643C17.9838 15.2523 18.2408 15.1865 18.6453 15.3499C19.2069 15.6703 19.7104 16.0831 20.1347 16.5709C20.6227 16.9953 21.0356 17.499 21.3562 18.0607C21.4795 18.3479 21.5275 18.6801 21.0472 19.1599Z" fill="black"/>
</g>
<g clip-path="url(#clip1_397_13801)">
<path d="M15.9441 12.7972C15.495 12.8092 15.0493 12.7151 14.6433 12.5226C14.2374 12.33 13.8825 12.0445 13.6076 11.6891C13.3939 11.3982 13.1104 11.1658 12.7832 11.0133C12.456 10.8608 12.0957 10.7932 11.7355 10.8167C9.36182 10.8167 7.2793 8.50295 7.2793 5.86538C7.28074 4.55265 7.80286 3.2941 8.7311 2.36586C9.65934 1.43762 10.9179 0.915504 12.2306 0.914062C17.069 0.914062 19.1625 6.65165 19.1625 9.57887C19.1614 10.4321 18.822 11.2501 18.2187 11.8534C17.6153 12.4568 16.7973 12.7962 15.9441 12.7972ZM12.2306 1.90433C7.04757 2.09198 7.09115 9.38329 11.7355 9.82644C12.2315 9.80366 12.7257 9.8996 13.1771 10.1063C13.6286 10.313 14.0241 10.6244 14.331 11.0148C15.4876 12.6244 18.2217 11.5955 18.1722 9.57887C18.1722 7.32008 16.4625 1.90433 12.2306 1.90433ZM10.6001 7.70084L14.0661 4.23491C14.1563 4.14153 14.2062 4.01646 14.205 3.88664C14.2039 3.75681 14.1518 3.63263 14.06 3.54083C13.9682 3.44903 13.8441 3.39695 13.7142 3.39582C13.5844 3.3947 13.4593 3.4446 13.366 3.5348L9.90003 7.00072C9.80984 7.0941 9.75993 7.21917 9.76106 7.34899C9.76219 7.47882 9.81426 7.603 9.90606 7.6948C9.99786 7.78661 10.122 7.83868 10.2519 7.83981C10.3817 7.84093 10.5068 7.79103 10.6001 7.70084ZM12.5807 8.6911L15.5515 5.72031C15.6417 5.62692 15.6916 5.50185 15.6904 5.37203C15.6893 5.24221 15.6372 5.11802 15.5454 5.02622C15.4536 4.93442 15.3294 4.88235 15.1996 4.88122C15.0698 4.88009 14.9447 4.93 14.8513 5.02019L11.8806 7.99098C11.7904 8.08437 11.7405 8.20944 11.7416 8.33926C11.7427 8.46908 11.7948 8.59327 11.8866 8.68507C11.9784 8.77687 12.1026 8.82894 12.2324 8.83007C12.3622 8.8312 12.4873 8.78129 12.5807 8.6911ZM14.5612 9.68136L16.5417 7.70084C16.6319 7.60745 16.6818 7.48238 16.6807 7.35256C16.6796 7.22274 16.6275 7.09855 16.5357 7.00675C16.4439 6.91495 16.3197 6.86288 16.1899 6.86175C16.0601 6.86062 15.935 6.91053 15.8416 7.00072L13.8611 8.98125C13.7709 9.07463 13.721 9.1997 13.7221 9.32952C13.7232 9.45934 13.7753 9.58353 13.8671 9.67533C13.9589 9.76713 14.0831 9.81921 14.2129 9.82033C14.3427 9.82146 14.4678 9.77156 14.5612 9.68136ZM16.5417 10.6716L17.0369 10.1765C17.1271 10.0831 17.177 9.95804 17.1758 9.82822C17.1747 9.6984 17.1226 9.57421 17.0308 9.48241C16.939 9.39061 16.8148 9.33854 16.685 9.33741C16.5552 9.33628 16.4301 9.38619 16.3367 9.47638L15.8416 9.97151C15.7514 10.0649 15.7015 10.19 15.7026 10.3198C15.7038 10.4496 15.7558 10.5738 15.8476 10.6656C15.9394 10.7574 16.0636 10.8095 16.1935 10.8106C16.3233 10.8117 16.4483 10.7618 16.5417 10.6716ZM10.105 5.22518L11.5904 3.73978C11.6806 3.6464 11.7305 3.52133 11.7294 3.3915C11.7283 3.26168 11.6762 3.1375 11.5844 3.0457C11.4926 2.95389 11.3684 2.90182 11.2386 2.90069C11.1087 2.89956 10.9837 2.94947 10.8903 3.03966L9.4049 4.52506C9.31471 4.61844 9.2648 4.74351 9.26593 4.87334C9.26706 5.00316 9.31913 5.12734 9.41093 5.21914C9.50273 5.31095 9.62692 5.36302 9.75674 5.36415C9.88656 5.36527 10.0116 5.31537 10.105 5.22518Z" fill="black"/>
</g>
<g clip-path="url(#clip2_397_13801)">
<path d="M11.5952 13.2285C11.4404 13.0741 11.2534 12.956 11.0475 12.8826C10.8415 12.8093 10.6219 12.7825 10.4044 12.8042C9.0215 12.9379 4.37072 13.5137 2.57439 15.3081C1.71571 16.1691 1.20653 17.3177 1.14517 18.5322C1.08382 19.7466 1.47463 20.9408 2.24215 21.8839L0.291333 23.8347C0.201141 23.9281 0.151234 24.0532 0.152362 24.183C0.153491 24.3128 0.205563 24.437 0.297365 24.5288C0.389166 24.6206 0.513351 24.6727 0.643173 24.6738C0.772995 24.675 0.898067 24.6251 0.99145 24.5349L2.94227 22.584C3.88525 23.3526 5.07969 23.7442 6.29466 23.6832C7.50963 23.6222 8.65884 23.1129 9.5201 22.2538C11.3402 20.4332 11.8967 15.7968 12.025 14.4193C12.0459 14.2014 12.0183 13.9815 11.9439 13.7756C11.8696 13.5697 11.7505 13.3828 11.5952 13.2285ZM8.82246 21.5517C8.14735 22.2243 7.25052 22.6283 6.2994 22.6881C5.34829 22.748 4.40789 22.4597 3.65377 21.877L8.42288 17.1079C8.51308 17.0145 8.56298 16.8894 8.56186 16.7596C8.56073 16.6298 8.50865 16.5056 8.41685 16.4138C8.32505 16.322 8.20087 16.2699 8.07104 16.2688C7.94122 16.2677 7.81615 16.3176 7.72277 16.4078L2.95118 21.1769C2.3684 20.4228 2.08001 19.4824 2.13987 18.5312C2.19974 17.5801 2.60376 16.6833 3.27648 16.0082C4.51877 14.7664 7.94409 14.0346 10.5 13.7895C10.5724 13.7825 10.6454 13.7915 10.7139 13.8158C10.7824 13.8402 10.8448 13.8794 10.8964 13.9306C10.9481 13.9818 10.9878 14.0437 11.0128 14.112C11.0379 14.1803 11.0475 14.2533 11.0411 14.3257C10.7936 16.993 10.0801 20.2916 8.81998 21.5517H8.82246Z" fill="black"/>
</g>
<defs>
<clipPath id="clip0_397_13801">
<rect width="11.8832" height="11.8832" fill="white" transform="translate(12.0312 12.791)"/>
</clipPath>
<clipPath id="clip1_397_13801">
<rect width="11.8832" height="11.8832" fill="white" transform="translate(7.2793 0.914062)"/>
</clipPath>
<clipPath id="clip2_397_13801">
<rect width="11.8832" height="11.8832" fill="white" transform="translate(0.148438 12.7969)"/>
</clipPath>
</defs>
</svg>
