<svg width="29" height="25" viewBox="0 0 29 25" fill="none" xmlns="http://www.w3.org/2000/svg">
<path fill-rule="evenodd" clip-rule="evenodd" d="M17.7822 1.71183L17.7784 1.70601C17.7537 1.72585 17.7301 1.74686 17.7074 1.76893C17.6981 1.77675 17.6889 1.78478 17.6799 1.79301L17.6814 1.79516C17.4238 2.06446 17.3027 2.47302 17.2431 2.82174C17.1706 3.24632 17.1626 3.74215 17.2138 4.23219C17.265 4.72306 17.3781 5.23285 17.5636 5.68153C17.7472 6.12522 18.0183 6.54871 18.4071 6.80789C18.7214 7.01741 18.9807 7.13417 19.2143 7.20059C19.4092 7.25598 19.5801 7.27314 19.7044 7.28562L19.7044 7.28562C19.7251 7.2877 19.7446 7.28965 19.7626 7.29163C19.889 7.30549 19.9736 7.32135 20.0743 7.36951C20.1809 7.42041 20.3306 7.52022 20.553 7.73921C20.7591 7.94206 21.1318 8.44105 21.602 9.12925C22.0618 9.80239 22.5883 10.6163 23.0944 11.414C23.5728 12.1681 24.0309 12.9042 24.3947 13.4891L24.3947 13.4891L24.456 13.5876C24.6422 13.8868 24.8016 14.1428 24.9223 14.3341C25.0345 14.5118 25.1317 14.6638 25.1814 14.7278C25.613 15.2846 26.2994 15.207 26.7397 14.8681L26.7407 14.8696C26.7577 14.8558 26.7746 14.8413 26.7912 14.8263C26.7985 14.82 26.8057 14.8137 26.8129 14.8073L26.8124 14.8066C27.2206 14.4212 27.475 13.701 27.1018 13.0886C27.0589 13.0183 26.9519 12.8741 26.8268 12.7078C26.692 12.5286 26.5109 12.291 26.2994 12.0135L26.2297 11.9221C25.8162 11.3798 25.2956 10.6972 24.7649 9.98789C24.2035 9.23768 23.6333 8.46122 23.1684 7.79266C22.6929 7.10894 22.357 6.57938 22.2352 6.30552C22.1035 6.0096 22.0564 5.82268 22.0405 5.69485C22.0253 5.57374 22.034 5.47807 22.0557 5.3375C22.0588 5.31747 22.0623 5.29594 22.066 5.27296C22.0882 5.13538 22.1188 4.94622 22.1225 4.72147C22.1268 4.45178 22.094 4.14141 21.9949 3.74772C21.8713 3.25725 21.5689 2.85625 21.2263 2.54727C20.8797 2.23478 20.4599 1.98673 20.0409 1.81059C19.6224 1.63466 19.1837 1.52165 18.7918 1.49543C18.4692 1.47384 18.082 1.50418 17.7822 1.71183ZM26.2145 14.0106C26.2713 13.9563 26.3088 13.8885 26.324 13.8281C26.3395 13.7668 26.3311 13.7249 26.3109 13.6913C26.3109 13.6914 26.307 13.6852 26.2965 13.6703C26.2852 13.6541 26.2698 13.6325 26.25 13.6053C26.2103 13.5509 26.1568 13.4791 26.0905 13.3909C25.9581 13.2148 25.7792 12.98 25.5671 12.7018L25.497 12.6099C25.0837 12.068 24.5607 11.3821 24.0271 10.6691C23.4634 9.91564 22.8852 9.12842 22.4104 8.44569C21.9461 7.7781 21.5507 7.16873 21.3815 6.78844C21.2221 6.43019 21.1342 6.13581 21.1005 5.86551C21.0658 5.58849 21.0925 5.36921 21.1204 5.18833C21.125 5.15838 21.1295 5.13027 21.1338 5.10347C21.1554 4.96785 21.1716 4.86596 21.1737 4.73081C21.1762 4.57636 21.159 4.36641 21.0803 4.05392C21.0259 3.83821 20.8738 3.60061 20.6147 3.36697C20.3595 3.13683 20.0305 2.93825 19.683 2.79216C19.335 2.64587 18.9895 2.56107 18.7093 2.54231C18.5692 2.53294 18.4575 2.5409 18.3761 2.55864C18.3419 2.56609 18.3173 2.57429 18.3005 2.5812C18.2918 2.59603 18.281 2.61664 18.269 2.64462C18.2347 2.72454 18.201 2.83938 18.1754 2.98953C18.1241 3.29005 18.114 3.67748 18.1564 4.08465C18.1988 4.49099 18.2911 4.89237 18.4285 5.22459C18.5679 5.5618 18.7374 5.78895 18.9129 5.90594C19.1629 6.07259 19.3398 6.1464 19.4736 6.18442C19.5905 6.21767 19.6823 6.22718 19.8046 6.23985C19.8288 6.24236 19.8542 6.24499 19.8812 6.24795C20.0444 6.26585 20.2403 6.29514 20.4703 6.40507C20.6946 6.51224 20.926 6.68342 21.1946 6.94785C21.4796 7.22841 21.9055 7.81099 22.3647 8.48314C22.8342 9.17036 23.3679 9.99559 23.8761 10.7966C24.357 11.5546 24.8172 12.2943 25.1808 12.8787L25.2425 12.9778C25.4291 13.2777 25.5867 13.5308 25.7053 13.7188C25.7647 13.8129 25.8133 13.889 25.8503 13.9457C25.8688 13.9741 25.8835 13.9963 25.8947 14.0128C25.9051 14.028 25.9094 14.0339 25.9094 14.0339L25.9088 14.0332C25.9342 14.0659 25.9692 14.0857 26.0249 14.0853C26.0827 14.0849 26.153 14.0608 26.2145 14.0106Z" fill="black"/>
<path d="M13.7903 22.1887C12.5483 22.9442 11.0912 23.3791 9.53282 23.3791C4.99071 23.3791 1.30859 19.6845 1.30859 15.127C1.30859 10.5696 4.99071 6.875 9.53282 6.875C12.8002 6.875 15.6226 8.78681 16.9494 11.5564" stroke="black"/>
<path d="M11.6261 20.1567C10.9818 20.4269 10.2745 20.5762 9.53243 20.5762C6.53196 20.5762 4.09961 18.1356 4.09961 15.125C4.09961 12.1144 6.53196 9.67383 9.53243 9.67383C11.4125 9.67383 13.0695 10.632 14.0449 12.0883" stroke="black"/>
<path d="M23.5914 17.5043C23.5914 20.8489 20.8896 23.5574 17.5603 23.5574C14.2311 23.5574 11.5293 20.8489 11.5293 17.5043C11.5293 14.1597 14.2311 11.4512 17.5603 11.4512C20.8896 11.4512 23.5914 14.1597 23.5914 17.5043Z" stroke="black"/>
<path d="M21.5777 17.5036C21.5777 19.6236 19.8653 21.3393 17.7566 21.3393C15.6479 21.3393 13.9355 19.6236 13.9355 17.5036C13.9355 15.3837 15.6479 13.668 17.7566 13.668C19.8653 13.668 21.5777 15.3837 21.5777 17.5036Z" stroke="black"/>
</svg>
