<svg width="15" height="15" viewBox="0 0 15 15" fill="none" xmlns="http://www.w3.org/2000/svg">
<path d="M7.3 11.6039C7.41046 11.6039 7.49948 11.6935 7.50504 11.8039C7.52119 12.1247 7.57563 12.4359 7.6602 12.7354C7.69762 12.8679 7.60103 13.0039 7.46332 13.0039H1.9C1.5287 13.0039 1.1726 12.8564 0.91005 12.5939C0.6475 12.3313 0.5 11.9752 0.5 11.6039V1.80393C0.5 1.03393 1.13 0.403931 1.9 0.403931H11.7C12.0713 0.403931 12.4274 0.55143 12.6899 0.813981C12.9525 1.07653 13.1 1.43263 13.1 1.80393V7.36725C13.1 7.50496 12.964 7.60155 12.8314 7.56413C12.5319 7.47956 12.2208 7.42512 11.8999 7.40897C11.7896 7.40341 11.7 7.31439 11.7 7.20393V2.00393C11.7 1.89347 11.6105 1.80393 11.5 1.80393H2.1C1.98954 1.80393 1.9 1.89347 1.9 2.00393V11.4039C1.9 11.5144 1.98954 11.6039 2.1 11.6039H7.3ZM8.32921 7.11654C8.25005 7.011 8.0922 7.00966 8.01126 7.11384L6.39974 9.18832C6.32131 9.28927 6.16961 9.29175 6.08793 9.1934L5.03384 7.92419C4.95224 7.82593 4.8007 7.8283 4.72221 7.92906L3.20156 9.88102C3.09923 10.0124 3.19283 10.2039 3.35933 10.2039H7.60406C7.68858 10.2039 7.76355 10.1506 7.79462 10.072C8.05752 9.40684 8.48355 8.82318 9.02341 8.37478C9.10828 8.30429 9.1264 8.17946 9.06021 8.09121L8.32921 7.11654ZM12.6 10.9039C12.4895 10.9039 12.4 10.8144 12.4 10.7039V9.00393C12.4 8.89347 12.3105 8.80393 12.2 8.80393H11.2C11.0895 8.80393 11 8.89347 11 9.00393V10.7039C11 10.8144 10.9105 10.9039 10.8 10.9039H9.1C8.98954 10.9039 8.9 10.9935 8.9 11.1039V12.1039C8.9 12.2144 8.98954 12.3039 9.1 12.3039H10.8C10.9105 12.3039 11 12.3935 11 12.5039V14.2039C11 14.3144 11.0895 14.4039 11.2 14.4039H12.2C12.3105 14.4039 12.4 14.3144 12.4 14.2039V12.5039C12.4 12.3935 12.4895 12.3039 12.6 12.3039H14.3C14.4105 12.3039 14.5 12.2144 14.5 12.1039V11.1039C14.5 10.9935 14.4105 10.9039 14.3 10.9039H12.6Z" fill="black"/>
</svg>
