<svg width="10" height="10" viewBox="0 0 10 10" fill="none" xmlns="http://www.w3.org/2000/svg">
<path d="M4.16666 10C4.25682 10 4.34454 9.97076 4.41666 9.91667L6.08333 8.66667C6.13508 8.62786 6.17708 8.57753 6.20601 8.51967C6.23494 8.46182 6.25 8.39802 6.25 8.33333V5.99167L9.17333 2.70292C9.38095 2.4687 9.51651 2.17951 9.56371 1.8701C9.61092 1.56069 9.56777 1.24423 9.43945 0.958756C9.31112 0.673282 9.10308 0.430941 8.84034 0.260861C8.57759 0.0907803 8.27132 0.000197675 7.95833 0L2.04166 0C1.7287 0.000367105 1.4225 0.0910997 1.15986 0.261294C0.897226 0.431489 0.689321 0.673905 0.561133 0.959411C0.432946 1.24492 0.389932 1.56136 0.437257 1.87073C0.484583 2.18009 0.620235 2.46921 0.827914 2.70333L3.75 5.99167V9.58333C3.75 9.69384 3.7939 9.79982 3.87204 9.87796C3.95018 9.9561 4.05616 10 4.16666 10ZM5.41666 8.125L4.58333 8.75V5.83333C4.58325 5.73132 4.54574 5.63287 4.47791 5.55667L1.44958 2.14958C1.3486 2.03545 1.28271 1.8946 1.25981 1.74394C1.23692 1.59328 1.25799 1.43921 1.32051 1.30023C1.38303 1.16125 1.48433 1.04327 1.61225 0.960453C1.74017 0.877633 1.88927 0.833493 2.04166 0.833333H7.95833C8.11064 0.833564 8.25966 0.877728 8.3875 0.960527C8.51534 1.04333 8.61658 1.16125 8.67908 1.30015C8.74158 1.43904 8.76268 1.59302 8.73986 1.74362C8.71704 1.89421 8.65126 2.03502 8.55041 2.14917L5.52166 5.55667C5.45399 5.63294 5.41663 5.73137 5.41666 5.83333V8.125Z" fill="black"/>
</svg>
