<svg width="22" height="22" viewBox="0 0 22 22" fill="none" xmlns="http://www.w3.org/2000/svg">
<path d="M10.6602 0.515625C4.86172 0.515625 0.160156 5.21719 0.160156 11.0156C0.160156 16.8141 4.86172 21.5156 10.6602 21.5156C16.4586 21.5156 21.1602 16.8141 21.1602 11.0156C21.1602 5.21719 16.4586 0.515625 10.6602 0.515625ZM10.6602 19.7344C5.84609 19.7344 1.94141 15.8297 1.94141 11.0156C1.94141 6.20156 5.84609 2.29688 10.6602 2.29688C15.4742 2.29688 19.3789 6.20156 19.3789 11.0156C19.3789 15.8297 15.4742 19.7344 10.6602 19.7344ZM13.4188 5.93906C13.0461 5.85703 12.6125 5.8125 12.1227 5.8125C9.62188 5.8125 7.92969 7.11797 7.46797 9.32578H6.72266C6.61953 9.32578 6.53516 9.41016 6.53516 9.51328V10.1508C6.53516 10.2539 6.61953 10.3383 6.72266 10.3383H7.34141C7.33438 10.4344 7.33438 10.5352 7.33438 10.6383V11.5031H6.72266C6.61953 11.5031 6.53516 11.5875 6.53516 11.6906V12.3281C6.53516 12.4313 6.61953 12.5156 6.72266 12.5156H7.43047C7.83359 14.8406 9.54922 16.2188 12.1227 16.2188C12.6125 16.2188 13.0461 16.1789 13.4188 16.0992C13.5055 16.0805 13.5688 16.0055 13.5688 15.9164V14.9133C13.5688 14.7961 13.4609 14.707 13.3461 14.7305C13.0016 14.7961 12.5984 14.8266 12.132 14.8266C10.5266 14.8266 9.44844 13.9688 9.08984 12.5156H12.1508C12.2539 12.5156 12.3383 12.4313 12.3383 12.3281V11.6906C12.3383 11.5875 12.2539 11.5031 12.1508 11.5031H8.95391V10.6594C8.95391 10.5492 8.95391 10.4391 8.96094 10.3359H12.1461C12.2492 10.3359 12.3336 10.2516 12.3336 10.1484V9.51094C12.3336 9.40781 12.2492 9.32344 12.1461 9.32344H9.13906C9.54219 7.98984 10.5992 7.20469 12.1297 7.20469C12.5961 7.20469 12.9992 7.23984 13.3414 7.30781C13.3686 7.31336 13.3966 7.31281 13.4236 7.30621C13.4505 7.2996 13.4756 7.28711 13.4971 7.26962C13.5187 7.25214 13.536 7.2301 13.548 7.20509C13.56 7.18008 13.5663 7.15273 13.5664 7.125V6.12188C13.5664 6.03281 13.5055 5.95781 13.4188 5.93906Z" fill="black"/>
</svg>
