<svg width="11" height="22" viewBox="0 0 11 22" fill="none" xmlns="http://www.w3.org/2000/svg">
<path fill-rule="evenodd" clip-rule="evenodd" d="M8.65991 4.41553C8.65991 2.48254 7.12494 0.915527 5.23134 0.915527C3.33774 0.915527 1.80277 2.48254 1.80277 4.41553C1.80277 6.34852 3.33774 7.91553 5.23134 7.91553C7.12494 7.91553 8.65991 6.34852 8.65991 4.41553ZM10.3767 13.1268C10.3767 11.2152 9.48125 9.66553 8.37668 9.66553H2.0886C0.984026 9.66553 0.0885974 11.2152 0.0885974 13.1268V15.598C0.0885974 15.5986 0.0881036 15.5991 0.0874944 15.5991C0.0868853 15.5991 0.0863914 15.5996 0.0863914 15.6002V21.1765C0.0863914 21.2813 0.132551 21.3808 0.21258 21.4485C0.276896 21.5029 0.358407 21.5327 0.442643 21.5327H10.0001C10.0796 21.5327 10.157 21.5073 10.2209 21.4601C10.316 21.39 10.3721 21.2788 10.3721 21.1607V19.5571C10.3721 19.5559 10.3731 19.5549 10.3744 19.5549C10.3757 19.5549 10.3767 19.5538 10.3767 19.5526V13.1268Z" fill="#D9D9D9"/>
</svg>
