<svg width="24" height="23" viewBox="0 0 24 23" fill="none" xmlns="http://www.w3.org/2000/svg">
<path d="M7.09859 16.2799L9.07206 15.7106L20.9543 3.68596C21.0481 3.58991 21.1003 3.46085 21.0996 3.32666C21.099 3.19246 21.0456 3.0639 20.951 2.96874L20.2394 2.24928C20.1934 2.20203 20.1384 2.16441 20.0778 2.13862C20.0171 2.11283 19.9519 2.09939 19.8859 2.09908C19.82 2.09876 19.7547 2.11159 19.6938 2.1368C19.6328 2.16201 19.5775 2.1991 19.5311 2.24592L7.6802 14.2392L7.09859 16.2799ZM21.648 0.823805L22.3596 1.54439C23.3413 2.53841 23.3503 4.14206 22.3776 5.126L10.1333 17.5182L5.91517 18.733C5.78766 18.7688 5.65432 18.7792 5.52279 18.7635C5.39126 18.7478 5.26411 18.7064 5.1486 18.6415C5.03309 18.5767 4.93148 18.4898 4.84958 18.3857C4.76767 18.2816 4.70708 18.1623 4.67125 18.0348C4.61629 17.8499 4.61551 17.6531 4.66901 17.4678L5.89612 13.1644L18.1079 0.804754C18.3401 0.570938 18.6165 0.385699 18.9211 0.259839C19.2256 0.133979 19.5522 0.0700181 19.8817 0.0716871C20.2112 0.0733561 20.5371 0.140621 20.8404 0.26956C21.1437 0.398498 21.4182 0.587649 21.648 0.823805ZM8.73922 2.11592C9.29507 2.11592 9.74557 2.57203 9.74557 3.13459C9.74646 3.26758 9.72112 3.39944 9.67101 3.52262C9.6209 3.64581 9.547 3.75791 9.45354 3.85252C9.36008 3.94713 9.24888 4.02239 9.12631 4.07399C9.00375 4.1256 8.87221 4.15253 8.73922 4.15327H4.71383C3.60215 4.15327 2.70114 5.06548 2.70114 6.1895V18.4114C2.70114 19.5365 3.60215 20.4487 4.71383 20.4487H16.79C17.9017 20.4487 18.8038 19.5365 18.8038 18.4114V14.3378C18.8038 13.7752 19.2543 13.3191 19.8102 13.3191C20.366 13.3191 20.8165 13.7752 20.8165 14.3389V18.4114C20.8165 20.6616 19.0134 22.486 16.79 22.486H4.71383C2.49046 22.486 0.688446 20.6616 0.688446 18.4114V6.1895C0.688446 3.94034 2.49046 2.11592 4.71383 2.11592H8.73922Z" fill="white"/>
</svg>
