<svg width="25" height="28" viewBox="0 0 25 28" fill="none" xmlns="http://www.w3.org/2000/svg">
<path fill-rule="evenodd" clip-rule="evenodd" d="M12.491 2.93213C14.3846 2.93213 15.9195 4.49914 15.9195 6.43213C15.9195 8.36512 14.3846 9.93213 12.491 9.93213C10.5974 9.93213 9.0624 8.36512 9.0624 6.43213C9.0624 4.49914 10.5974 2.93213 12.491 2.93213ZM6.20622 16.9321C6.20561 16.9321 6.20511 16.9326 6.20511 16.9332V17.8988C6.20511 18.0092 6.11557 18.0988 6.00511 18.0988H1.9194C1.44602 18.0988 1.06226 17.707 1.06226 17.2238V13.1404C1.06226 12.0692 1.87038 11.1907 2.89822 11.1055L3.06226 11.0988L6.50712 11.0978C6.6754 11.0977 6.77258 11.2965 6.68459 11.4399C6.42391 11.8648 6.25803 12.3566 6.21719 12.8842L6.20732 13.1404V16.931C6.20732 16.9316 6.20683 16.9321 6.20622 16.9321ZM23.9195 13.1404C23.9195 12.0128 23.024 11.0988 21.9195 11.0988L18.4814 11.0978C18.3131 11.0977 18.2159 11.2964 18.3039 11.4399C18.6063 11.9329 18.7812 12.5158 18.7812 13.1404V14.5965C18.7812 14.5977 18.7802 14.5988 18.7789 14.5988C18.7776 14.5988 18.7766 14.5998 18.7766 14.601V17.8988C18.7766 18.0092 18.8661 18.0988 18.9766 18.0988H23.0623C23.5357 18.0988 23.9195 17.707 23.9195 17.2238V13.1404ZM15.6384 11.0987C16.743 11.0987 17.6384 12.0128 17.6384 13.1404V16.9298C17.6384 16.931 17.6374 16.9321 17.6361 16.9321C17.6348 16.9321 17.6338 16.9331 17.6338 16.9343V17.8987C17.6338 18.0092 17.5443 18.0987 17.4338 18.0987H7.54811C7.43765 18.0987 7.34811 18.0092 7.34811 17.8987V14.5998C7.34811 14.5995 7.34825 14.5992 7.34848 14.599L7.34921 14.5987C7.34982 14.5987 7.35032 14.5982 7.35032 14.5976V13.1404C7.35032 12.0128 8.24574 11.0987 9.35032 11.0987H15.6384ZM22.7768 7.01539C22.7768 5.40456 21.4976 4.09872 19.9197 4.09872C18.3417 4.09872 17.0625 5.40456 17.0625 7.01539C17.0625 8.62622 18.3417 9.93206 19.9197 9.93206C21.4976 9.93206 22.7768 8.62622 22.7768 7.01539ZM5.0624 4.09872C6.64035 4.09872 7.91954 5.40456 7.91954 7.01539C7.91954 8.62622 6.64035 9.93206 5.0624 9.93206C3.48444 9.93206 2.20525 8.62622 2.20525 7.01539C2.20525 5.40456 3.48444 4.09872 5.0624 4.09872ZM1.9194 19.2655C1.44602 19.2655 1.06226 19.6573 1.06226 20.1405V20.7239C1.06226 23.1402 2.98103 25.0989 5.34797 25.0989H19.6337C22.0007 25.0989 23.9194 23.1402 23.9194 20.7239V20.1405C23.9194 19.6573 23.5356 19.2655 23.0623 19.2655H1.9194Z" fill="#D9D9D9"/>
</svg>
