<svg width="13" height="12" viewBox="0 0 13 12" fill="none" xmlns="http://www.w3.org/2000/svg">
<g clip-path="url(#clip0_482_8035)">
<path d="M11.5429 3.01843C11.5288 3.03105 11.5153 3.04451 11.5039 3.05964C11.3294 3.29119 11.1084 3.46761 11.1084 3.64403C11.1084 3.82623 11.2852 4.00843 11.462 4.25137C11.7505 4.54867 12.039 4.78776 11.9957 5.08261C11.9938 5.09527 11.9925 5.10808 11.992 5.12086C11.98 5.41812 11.6915 5.71539 11.4031 6.01265L9.12502 8.36021C9.04847 8.43909 8.92262 8.44142 8.84321 8.36543L8.30712 7.85244C8.22692 7.7757 8.22456 7.64832 8.30187 7.56866L10.5017 5.30166C10.577 5.22407 10.577 5.10069 10.5017 5.0231L10.1911 4.70295C10.1125 4.62199 9.98258 4.62199 9.90401 4.70295L9.36598 5.2574C9.28742 5.33836 9.15748 5.33836 9.07892 5.2574L7.12157 3.24032C7.04489 3.1613 7.0465 3.03516 7.12519 2.95813L9.34032 0.78954C9.57606 0.546605 9.92967 0.546605 10.1654 0.78954L11.5209 2.18642C11.7491 2.42156 11.7564 2.82741 11.5429 3.01843ZM1.08935 9.31263C1.08935 9.26063 1.10961 9.21067 1.14582 9.17335L6.6017 3.55099C6.68099 3.46928 6.81241 3.47015 6.89061 3.55291L8.79693 5.57051C8.8702 5.64805 8.86971 5.76944 8.79582 5.84639L3.38793 11.478C3.35022 11.5172 3.29812 11.5394 3.24368 11.5394H1.28935C1.1789 11.5394 1.08935 11.4499 1.08935 11.3394V9.31263ZM3.24677 0C3.35723 0 3.44677 0.0895431 3.44677 0.2V1.62201C3.44677 1.73247 3.53632 1.82202 3.64677 1.82202H5.01484C5.12529 1.82202 5.21484 1.91156 5.21484 2.02202V2.83669C5.21484 2.94715 5.12529 3.03669 5.01484 3.03669H3.64677C3.53632 3.03669 3.44677 3.12624 3.44677 3.23669V4.65871C3.44677 4.76916 3.35723 4.85871 3.24677 4.85871H2.46806C2.35761 4.85871 2.26806 4.76916 2.26806 4.65871V3.23669C2.26806 3.12624 2.17852 3.03669 2.06806 3.03669H0.7C0.589543 3.03669 0.5 2.94715 0.5 2.83669V2.02202C0.5 1.91156 0.589543 1.82202 0.7 1.82202H2.06806C2.17852 1.82202 2.26806 1.73247 2.26806 1.62201V0.2C2.26806 0.0895433 2.35761 0 2.46806 0H3.24677Z" fill="black"/>
</g>
<defs>
<clipPath id="clip0_482_8035">
<rect width="12" height="12" fill="white" transform="translate(0.5)"/>
</clipPath>
</defs>
</svg>
