<svg width="25" height="25" viewBox="0 0 25 25" fill="none" xmlns="http://www.w3.org/2000/svg">
<path d="M7.64524 17.7884L9.75844 17.1788L22.482 4.30357C22.5824 4.20073 22.6383 4.06255 22.6376 3.91886C22.6369 3.77517 22.5797 3.63751 22.4784 3.53562L21.7164 2.76526C21.6672 2.71467 21.6084 2.67439 21.5434 2.64678C21.4784 2.61916 21.4086 2.60477 21.338 2.60444C21.2674 2.6041 21.1974 2.61783 21.1322 2.64483C21.0669 2.67182 21.0077 2.71154 20.958 2.76166L8.26804 15.6033L7.64524 17.7884ZM23.2248 1.23895L23.9868 2.01051C25.038 3.07484 25.0476 4.79194 24.006 5.84548L17.4504 12.4799L10.8948 19.1143L6.37804 20.415C6.24149 20.4534 6.09872 20.4645 5.95788 20.4477C5.81704 20.4309 5.68088 20.3865 5.55719 20.3171C5.4335 20.2477 5.3247 20.1546 5.237 20.0431C5.14929 19.9317 5.08441 19.804 5.04604 19.6675C4.98719 19.4695 4.98636 19.2588 5.04364 19.0603L6.35764 14.4526L19.434 1.21855C19.6827 0.968197 19.9787 0.769853 20.3048 0.635089C20.6309 0.500326 20.9806 0.431841 21.3334 0.433628C21.6863 0.435415 22.0353 0.507439 22.36 0.645498C22.6847 0.783558 22.9787 0.98609 23.2248 1.23895ZM9.40204 2.62247C9.99724 2.62247 10.4796 3.11084 10.4796 3.71321C10.4806 3.8556 10.4535 3.99678 10.3998 4.12869C10.3461 4.26059 10.267 4.38062 10.1669 4.48192C10.0669 4.58322 9.94778 4.6638 9.81654 4.71906C9.68529 4.77431 9.54444 4.80316 9.40204 4.80394H5.09164C3.90125 4.80394 2.93645 5.78069 2.93645 6.98422V20.0707C2.93645 21.2754 3.90125 22.2521 5.09164 22.2521H18.0228C19.2132 22.2521 20.1792 21.2754 20.1792 20.0707V15.7089C20.1792 15.1065 20.6616 14.6182 21.2568 14.6182C21.852 14.6182 22.3344 15.1065 22.3344 15.7101V20.0707C22.3344 22.4801 20.4036 24.4336 18.0228 24.4336H5.09164C2.71085 24.4336 0.78125 22.4801 0.78125 20.0707V6.98422C0.78125 4.57596 2.71085 2.62247 5.09164 2.62247H9.40204Z" fill="url(#paint0_linear_926_12909)"/>
<defs>
<linearGradient id="paint0_linear_926_12909" x1="-1.81075" y1="27.4881" x2="30.4497" y2="2.19591" gradientUnits="userSpaceOnUse">
<stop offset="0.025" stop-color="#FF62C0"/>
<stop offset="1" stop-color="#FFDC69"/>
</linearGradient>
</defs>
</svg>
