<svg width="16" height="15" viewBox="0 0 16 15" fill="none" xmlns="http://www.w3.org/2000/svg">
<path d="M15.1175 13.6032C15.1175 14.0451 14.7593 14.4032 14.3175 14.4032H11.8504C11.4085 14.4032 11.0504 14.0451 11.0504 13.6032V1.64619C11.0504 1.20436 11.4085 0.846191 11.8504 0.846191H14.3175C14.7593 0.846191 15.1175 1.20436 15.1175 1.64619V13.6032ZM12.0671 12.5604C12.0671 13.0022 12.4253 13.3604 12.8671 13.3604H13.3007C13.7425 13.3604 14.1007 13.0022 14.1007 12.5604V2.68904C14.1007 2.24721 13.7425 1.88904 13.3007 1.88904H12.8671C12.4253 1.88904 12.0671 2.24721 12.0671 2.68904V12.5604ZM10.0336 13.6032C10.0336 14.0451 9.6754 14.4032 9.23358 14.4032H6.76646C6.32463 14.4032 5.96646 14.0451 5.96646 13.6032V5.81759C5.96646 5.37576 6.32463 5.01759 6.76646 5.01759H9.23358C9.6754 5.01759 10.0336 5.37576 10.0336 5.81759V13.6032ZM6.98324 12.5604C6.98324 13.0022 7.34141 13.3604 7.78324 13.3604H8.2168C8.65863 13.3604 9.0168 13.0022 9.0168 12.5604V6.86044C9.0168 6.41861 8.65862 6.06044 8.2168 6.06044H7.78324C7.34141 6.06044 6.98324 6.41861 6.98324 6.86044V12.5604ZM4.94968 13.6032C4.94968 14.0451 4.59151 14.4032 4.14968 14.4032H1.68257C1.24074 14.4032 0.882568 14.0451 0.882568 13.6032V8.94614C0.882568 8.50431 1.24074 8.14614 1.68257 8.14614H4.14968C4.59151 8.14614 4.94968 8.50431 4.94968 8.94614V13.6032ZM1.89935 12.5604C1.89935 13.0022 2.25752 13.3604 2.69935 13.3604H3.1329C3.57473 13.3604 3.9329 13.0022 3.9329 12.5604V9.98899C3.9329 9.54716 3.57473 9.18899 3.1329 9.18899H2.69935C2.25752 9.18899 1.89935 9.54716 1.89935 9.98899V12.5604Z" fill="black"/>
</svg>
