<svg width="11" height="13" viewBox="0 0 11 13" fill="none" xmlns="http://www.w3.org/2000/svg">
<path d="M0.527344 1.7207C0.527344 1.16842 0.975059 0.720703 1.52734 0.720703H9.27734C9.82963 0.720703 10.2773 1.16842 10.2773 1.7207V11.6374C10.2773 12.1897 9.82963 12.6374 9.27734 12.6374H1.52734C0.975059 12.6374 0.527344 12.1897 0.527344 11.6374V1.7207ZM2.61068 1.80404C2.05839 1.80404 1.61068 2.25175 1.61068 2.80404V10.554C1.61068 11.1063 2.05839 11.554 2.61068 11.554H8.19401C8.74629 11.554 9.19401 11.1063 9.19401 10.554V2.80404C9.19401 2.25175 8.7463 1.80404 8.19401 1.80404H2.61068ZM3.23568 4.51237C3.23568 4.21322 3.47819 3.9707 3.77734 3.9707H7.02734C7.3265 3.9707 7.56901 4.21322 7.56901 4.51237V4.51237C7.56901 4.81152 7.3265 5.05404 7.02734 5.05404H3.77734C3.47819 5.05404 3.23568 4.81152 3.23568 4.51237V4.51237ZM3.23568 6.67904C3.23568 6.37988 3.47819 6.13737 3.77734 6.13737H7.02734C7.3265 6.13737 7.56901 6.37988 7.56901 6.67904V6.67904C7.56901 6.97819 7.3265 7.2207 7.02734 7.2207H3.77734C3.47819 7.2207 3.23568 6.97819 3.23568 6.67904V6.67904ZM3.23568 8.8457C3.23568 8.54655 3.47819 8.30404 3.77734 8.30404H7.02734C7.3265 8.30404 7.56901 8.54655 7.56901 8.8457V8.8457C7.56901 9.14486 7.3265 9.38737 7.02734 9.38737H3.77734C3.47819 9.38737 3.23568 9.14486 3.23568 8.8457V8.8457Z" fill="black"/>
</svg>
