<?xml version="1.0" encoding="UTF-8"?><svg id="Calque_1" xmlns="http://www.w3.org/2000/svg" width="512" height="512" viewBox="0 0 512 512"><defs><style>.cls-1{fill:#000;}.cls-1,.cls-2{stroke-width:0px;}.cls-3{opacity:.1;}.cls-2{fill:#fff;}</style></defs><path class="cls-2" d="M462.1,365.32c0-92.52-75.09-167.61-167.61-167.61s-167.61,75.09-167.61,167.61"/><g class="cls-3"><path class="cls-1" d="M304.89,204.15c76.72,5.36,151.04,66.08,152.24,155.74h-66.97c0-78.49-8.92-139.45-85.27-154.37-1.17-.94,0-1.36,0-1.36Z"/></g><path class="cls-2" d="M85.68,360.41h26.45c4.18-84.92,66.12-154.87,147.56-170.53v-20.88c0-19.14,15.66-34.8,34.8-34.8s34.8,15.66,34.8,34.8v20.88c81.44,15.66,143.73,85.61,147.56,170.53h26.45c4.87,0,8.7,3.83,8.7,8.7s-3.83,8.7-8.7,8.7H85.68c-4.87,0-8.7-3.83-8.7-8.7s3.83-8.7,8.7-8.7ZM311.89,169c0-9.74-7.66-17.4-17.4-17.4s-17.4,7.66-17.4,17.4v18.1c5.57-.7,11.49-.7,17.4-.7s11.83.35,17.4.7v-18.1ZM294.49,203.8c-88.4,0-160.44,69.6-164.96,156.61h329.92c-4.52-87-76.56-156.61-164.96-156.61Z"/><path class="cls-2" d="M58.9,189.52h84.26c4.72,0,8.43,4.5,8.43,10.23s-3.71,10.23-8.43,10.23H58.9c-4.72,0-8.43-4.5-8.43-10.23s3.71-10.23,8.43-10.23Z"/><path class="cls-2" d="M29.79,245.99h50.81c5.93,0,10.58,4.5,10.58,10.23s-4.66,10.23-10.58,10.23H29.79c-5.93,0-10.58-4.5-10.58-10.23s4.66-10.23,10.58-10.23Z"/><path class="cls-2" d="M7.65,299.77h36.72c4.28,0,7.65,4.5,7.65,10.23s-3.37,10.23-7.65,10.23H7.65c-4.28,0-7.65-4.5-7.65-10.23s3.37-10.23,7.65-10.23Z"/></svg>