<?xml version="1.0" encoding="utf-8"?>
<!-- Generator: Adobe Illustrator 28.3.0, SVG Export Plug-In . SVG Version: 6.00 Build 0)  -->
<svg version="1.1" id="Calque_1" xmlns="http://www.w3.org/2000/svg" xmlns:xlink="http://www.w3.org/1999/xlink" x="0px" y="0px"
	 viewBox="0 0 160 160" style="enable-background:new 0 0 160 160;" xml:space="preserve">
<style type="text/css">
	.st0{fill:#FFFFFF;}
	.st1{opacity:0.1;}
</style>
<g>
	<path class="st0" d="M144.4,114.2c0-28.9-23.5-52.4-52.4-52.4s-52.4,23.5-52.4,52.4"/>
	<g class="st1">
		<path d="M95.3,63.8c24,1.7,47.2,20.6,47.6,48.7h-20.9c0-24.5-2.8-43.6-26.6-48.2C94.9,63.9,95.3,63.8,95.3,63.8L95.3,63.8z"/>
	</g>
	<path class="st0" d="M26.8,112.6H35c1.3-26.5,20.7-48.4,46.1-53.3v-6.5c0-6,4.9-10.9,10.9-10.9s10.9,4.9,10.9,10.9v6.5
		c25.4,4.9,44.9,26.8,46.1,53.3h8.3c1.5,0,2.7,1.2,2.7,2.7s-1.2,2.7-2.7,2.7H26.8c-1.5,0-2.7-1.2-2.7-2.7S25.3,112.6,26.8,112.6z
		 M97.5,52.8c0-3-2.4-5.4-5.4-5.4s-5.4,2.4-5.4,5.4v5.7c1.7-0.2,3.6-0.2,5.4-0.2c1.8,0,3.7,0.1,5.4,0.2V52.8z M92,63.7
		c-27.6,0-50.1,21.7-51.6,48.9h103.1C142.2,85.4,119.7,63.7,92,63.7z"/>
	<path class="st0" d="M18.4,59.2h26.3c1.5,0,2.6,1.4,2.6,3.2s-1.2,3.2-2.6,3.2H18.4c-1.5,0-2.6-1.4-2.6-3.2S16.9,59.2,18.4,59.2z"/>
	<path class="st0" d="M9.3,76.9h15.9c1.9,0,3.3,1.4,3.3,3.2s-1.5,3.2-3.3,3.2H9.3c-1.9,0-3.3-1.4-3.3-3.2S7.5,76.9,9.3,76.9z"/>
	<path class="st0" d="M2.4,93.7h11.5c1.3,0,2.4,1.4,2.4,3.2c0,1.8-1.1,3.2-2.4,3.2H2.4c-1.3,0-2.4-1.4-2.4-3.2
		C0,95.1,1.1,93.7,2.4,93.7z"/>
</g>
</svg>
