<svg width="67" height="47" viewBox="0 0 67 47" fill="none" xmlns="http://www.w3.org/2000/svg">
<path d="M53.2553 23.3801C53.2553 14.3329 45.9126 6.99023 36.8654 6.99023C27.8182 6.99023 20.4755 14.3329 20.4755 23.3801" fill="white"/>
<g opacity="0.1">
<path d="M37.8823 7.61926C45.3843 8.14382 52.6518 14.0809 52.7698 22.8481H46.2206C46.2206 15.1729 45.3484 9.21141 37.8823 7.75249C37.7675 7.66048 37.8823 7.61926 37.8823 7.61926Z" fill="black"/>
</g>
<path d="M16.4463 22.8994H19.0327C19.4411 14.5957 25.4988 7.7553 33.4622 6.22387V4.18197C33.4622 2.31023 34.9936 0.778809 36.8653 0.778809C38.7371 0.778809 40.2685 2.31023 40.2685 4.18197V6.22387C48.2319 7.7553 54.3236 14.5957 54.6979 22.8994H57.2843C57.7608 22.8994 58.1351 23.2737 58.1351 23.7502C58.1351 24.2266 57.7608 24.601 57.2843 24.601L16.4463 24.601C15.9699 24.601 15.5955 24.2266 15.5955 23.7502C15.5955 23.2737 15.9699 22.8994 16.4463 22.8994ZM38.5669 4.18197C38.5669 3.22909 37.8182 2.48039 36.8653 2.48039C35.9124 2.48039 35.1637 3.22909 35.1637 4.18197V5.95162C35.7082 5.88355 36.2868 5.88356 36.8653 5.88356C37.4439 5.88356 38.0224 5.91759 38.5669 5.95162V4.18197ZM36.8653 7.58514C28.2213 7.58514 21.1767 14.3915 20.7343 22.8994L52.9963 22.8994C52.5539 14.3915 45.5094 7.58514 36.8653 7.58514Z" fill="white"/>
<path d="M13.8282 6.18921L22.0674 6.18921C22.5288 6.18921 22.8913 6.62921 22.8913 7.18921C22.8913 7.74921 22.5288 8.18921 22.0674 8.18921L13.8282 8.18921C13.3668 8.18921 13.0043 7.74921 13.0043 7.18921C13.0043 6.62921 13.3668 6.18921 13.8282 6.18921Z" fill="white"/>
<path d="M10.9805 11.7106L15.9488 11.7106C16.5284 11.7106 16.9838 12.1506 16.9838 12.7106C16.9838 13.2706 16.5284 13.7106 15.9488 13.7106L10.9805 13.7106C10.4009 13.7106 9.94549 13.2706 9.94549 12.7106C9.94549 12.1506 10.4009 11.7106 10.9805 11.7106Z" fill="white"/>
<path d="M8.81617 16.9698H12.4073C12.8262 16.9698 13.1554 17.4098 13.1554 17.9698C13.1554 18.5298 12.8262 18.9698 12.4073 18.9698H8.81617C8.39721 18.9698 8.06802 18.5298 8.06802 17.9698C8.06802 17.4098 8.39721 16.9698 8.81617 16.9698Z" fill="white"/>
<path d="M6.08441 41.817C4.80041 41.817 3.81641 41.475 3.13241 40.791C2.44841 40.107 2.10641 39.123 2.10641 37.839C2.10641 36.279 2.54441 34.965 3.42041 33.897C4.29641 32.817 5.46041 32.277 6.91241 32.277C7.74041 32.277 8.41241 32.445 8.92841 32.781C9.44441 33.105 9.70241 33.591 9.70241 34.239C9.70241 34.659 9.53441 35.037 9.19841 35.373C8.86241 35.697 8.48441 35.859 8.06441 35.859C7.96841 35.859 7.84841 35.847 7.70441 35.823C7.74041 35.667 7.75841 35.529 7.75841 35.409C7.75841 34.977 7.64441 34.611 7.41641 34.311C7.18841 34.011 6.81041 33.861 6.28241 33.861C5.75441 33.861 5.26241 34.077 4.80641 34.509C4.48241 35.349 4.32041 36.399 4.32041 37.659C4.32041 39.375 4.96841 40.233 6.26441 40.233C6.96041 40.233 7.47641 40.011 7.81241 39.567C8.16041 39.111 8.33441 38.601 8.33441 38.037C8.74241 38.037 9.09641 38.139 9.39641 38.343C9.69641 38.547 9.84641 38.829 9.84641 39.189C9.84641 39.969 9.44441 40.605 8.64041 41.097C7.84841 41.577 6.99641 41.817 6.08441 41.817ZM14.7081 41.817C13.3881 41.817 12.4161 41.433 11.7921 40.665C11.1681 39.885 10.8561 38.805 10.8561 37.425C10.8561 36.033 11.2701 34.827 12.0981 33.807C12.9261 32.787 13.9881 32.277 15.2841 32.277C17.9481 32.277 19.2801 33.777 19.2801 36.777C19.2801 38.181 18.8481 39.375 17.9841 40.359C17.1201 41.331 16.0281 41.817 14.7081 41.817ZM13.4121 34.257C13.1961 34.953 13.0881 35.649 13.0881 36.345C13.0881 37.041 13.1121 37.581 13.1601 37.965C13.2081 38.349 13.2981 38.733 13.4301 39.117C13.7061 39.897 14.2461 40.287 15.0501 40.287C15.8661 40.287 16.4001 40.071 16.6521 39.639C16.9161 39.207 17.0481 38.541 17.0481 37.641C17.0481 35.085 16.4421 33.807 15.2301 33.807C14.5341 33.807 13.9281 33.957 13.4121 34.257ZM23.9718 41.817C22.6518 41.817 21.6798 41.433 21.0558 40.665C20.4318 39.885 20.1198 38.805 20.1198 37.425C20.1198 36.033 20.5338 34.827 21.3618 33.807C22.1898 32.787 23.2518 32.277 24.5478 32.277C27.2118 32.277 28.5438 33.777 28.5438 36.777C28.5438 38.181 28.1118 39.375 27.2478 40.359C26.3838 41.331 25.2918 41.817 23.9718 41.817ZM22.6758 34.257C22.4598 34.953 22.3518 35.649 22.3518 36.345C22.3518 37.041 22.3758 37.581 22.4238 37.965C22.4718 38.349 22.5618 38.733 22.6938 39.117C22.9698 39.897 23.5098 40.287 24.3138 40.287C25.1298 40.287 25.6638 40.071 25.9158 39.639C26.1798 39.207 26.3118 38.541 26.3118 37.641C26.3118 35.085 25.7058 33.807 24.4938 33.807C23.7978 33.807 23.1918 33.957 22.6758 34.257ZM32.1914 35.931C32.6114 35.043 33.2354 34.233 34.0634 33.501C34.9034 32.757 35.7494 32.385 36.6014 32.385C37.8014 32.385 38.4014 33.021 38.4014 34.293C38.4014 34.941 38.1014 35.637 37.5014 36.381C36.9134 37.113 36.2534 37.695 35.5214 38.127C35.8574 38.715 36.2714 39.165 36.7634 39.477C37.2674 39.777 37.9274 40.017 38.7434 40.197C38.7434 40.665 38.6294 41.037 38.4014 41.313C38.1854 41.577 37.8734 41.709 37.4654 41.709C36.6494 41.709 35.8514 41.319 35.0714 40.539C34.2914 39.747 33.7034 38.865 33.3074 37.893C34.0754 37.509 34.7354 37.053 35.2874 36.525C35.8514 35.997 36.1334 35.469 36.1334 34.941C36.1334 34.413 35.9714 34.149 35.6474 34.149C35.0234 34.149 34.3274 34.719 33.5594 35.859C32.8034 36.999 32.3654 37.947 32.2454 38.703C32.2694 39.051 32.3894 39.945 32.6054 41.385C32.2334 41.529 31.8254 41.601 31.3814 41.601C30.4574 41.601 29.9954 41.151 29.9954 40.251C29.9954 39.819 30.0614 38.973 30.1934 37.713C30.3254 36.441 30.3914 35.421 30.3914 34.653C30.3914 32.097 30.2474 29.985 29.9594 28.317C30.3434 28.173 30.7394 28.101 31.1474 28.101C31.5554 28.101 31.8914 28.239 32.1554 28.515C32.4314 28.779 32.5694 29.145 32.5694 29.613C32.5694 30.081 32.5034 31.047 32.3714 32.511C32.2514 33.975 32.1914 35.115 32.1914 35.931ZM39.8199 33.357C40.2879 33.129 40.6419 32.877 40.8819 32.601C41.1339 32.325 41.3259 31.965 41.4579 31.521C40.9299 31.365 40.6659 31.011 40.6659 30.459C40.6659 30.123 40.7739 29.673 40.9899 29.109C41.3739 28.917 41.7699 28.821 42.1779 28.821C42.5859 28.821 42.9039 28.941 43.1319 29.181C43.3719 29.409 43.4919 29.727 43.4919 30.135C43.4919 30.951 43.1979 31.743 42.6099 32.511C42.0219 33.267 41.3559 33.645 40.6119 33.645C40.3119 33.645 40.0479 33.549 39.8199 33.357ZM45.5207 39.765L45.7007 36.021C45.7007 34.857 45.5327 33.753 45.1967 32.709C45.5327 32.565 45.9467 32.493 46.4387 32.493C47.3987 32.493 47.8787 33.027 47.8787 34.095C47.8787 34.695 47.8127 35.541 47.6807 36.633C47.5487 37.713 47.4827 38.499 47.4827 38.991C47.4827 39.591 47.7527 39.891 48.2927 39.891C48.6167 39.891 48.9947 39.621 49.4267 39.081C49.8707 38.529 50.2487 37.917 50.5607 37.245C50.8847 36.561 51.0767 36.003 51.1367 35.571C51.0647 34.251 50.9627 33.297 50.8307 32.709C51.2147 32.565 51.6047 32.493 52.0007 32.493C52.4087 32.493 52.7447 32.619 53.0087 32.871C53.2847 33.123 53.4227 33.435 53.4227 33.807C53.4227 34.179 53.3687 34.797 53.2607 35.661C53.1527 36.525 53.0987 37.431 53.0987 38.379C53.0987 39.315 53.2067 40.317 53.4227 41.385C52.9547 41.529 52.5347 41.601 52.1627 41.601C51.4187 41.601 51.0467 41.109 51.0467 40.125C51.0467 39.693 51.0947 39.093 51.1907 38.325C50.7107 39.345 50.1227 40.167 49.4267 40.791C48.7427 41.403 48.0467 41.709 47.3387 41.709C46.1267 41.709 45.5207 41.061 45.5207 39.765ZM57.5764 39.837C58.0684 40.017 58.6384 40.107 59.2864 40.107C59.9344 40.107 60.5044 39.981 60.9964 39.729C61.5844 38.721 61.8784 37.515 61.8784 36.111C61.8784 34.695 61.6324 33.987 61.1404 33.987C60.5284 33.987 59.8384 34.605 59.0704 35.841C58.3144 37.077 57.8164 38.409 57.5764 39.837ZM57.5764 36.147C58.8484 33.639 60.2584 32.385 61.8064 32.385C62.6224 32.385 63.2044 32.721 63.5524 33.393C63.9124 34.053 64.0924 34.893 64.0924 35.913C64.0924 37.377 63.6604 38.709 62.7964 39.909C61.9324 41.109 60.8464 41.709 59.5384 41.709C58.7944 41.709 58.1164 41.589 57.5044 41.349C57.5284 42.993 57.6304 44.499 57.8104 45.867C57.4264 46.011 57.0304 46.083 56.6224 46.083C56.2144 46.083 55.8784 45.945 55.6144 45.669C55.3504 45.405 55.2184 44.997 55.2184 44.445C55.2184 43.893 55.2904 42.951 55.4344 41.619C55.5784 40.287 55.6504 39.243 55.6504 38.487C55.6504 35.991 55.5184 34.065 55.2544 32.709C55.6384 32.565 56.0404 32.493 56.4604 32.493C56.8924 32.493 57.2224 32.619 57.4504 32.871C57.6904 33.111 57.8104 33.495 57.8104 34.023C57.8104 34.539 57.7324 35.247 57.5764 36.147Z" fill="white"/>
</svg>
