<svg width="265" height="58" viewBox="0 0 265 58" fill="none" xmlns="http://www.w3.org/2000/svg">
<path d="M107.546 53.9435C107.546 32.4109 90.0707 14.9352 68.5381 14.9352C47.0055 14.9352 29.5298 32.4109 29.5298 53.9435" fill="white"/>
<g opacity="0.1">
<path d="M70.9586 16.4321C88.8136 17.6806 106.11 31.8108 106.391 52.677L90.804 52.677C90.804 34.4099 88.728 20.2215 70.9586 16.7492C70.6855 16.5302 70.9586 16.4321 70.9586 16.4321Z" fill="black"/>
</g>
<path d="M19.9406 52.7989H26.0963C27.0682 33.0359 41.4855 16.7557 60.4386 13.1108V8.25109C60.4386 3.79631 64.0834 0.151489 68.5382 0.151489C72.9929 0.151489 76.6378 3.79631 76.6378 8.25109V13.1108C95.5908 16.7557 110.089 33.0359 110.98 52.7989H117.136C118.27 52.7989 119.161 53.6898 119.161 54.8238C119.161 55.9577 118.27 56.8487 117.136 56.8487L19.9406 56.8487C18.8066 56.8487 17.9157 55.9577 17.9157 54.8238C17.9157 53.6898 18.8066 52.7989 19.9406 52.7989ZM72.588 8.25109C72.588 5.9832 70.806 4.20129 68.5382 4.20129C66.2703 4.20129 64.4884 5.9832 64.4884 8.25109V12.4629C65.7843 12.3009 67.1612 12.3009 68.5382 12.3009C69.9151 12.3009 71.292 12.3819 72.588 12.4629V8.25109ZM68.5382 16.3507C47.9652 16.3507 31.199 32.5499 30.1461 52.7989L106.93 52.7989C105.877 32.5499 89.1111 16.3507 68.5382 16.3507Z" fill="white"/>
<path d="M13.7094 13.0282L33.3188 13.0282C34.417 13.0282 35.2798 14.0754 35.2798 15.4082C35.2798 16.741 34.417 17.7882 33.3188 17.7882L13.7094 17.7882C12.6113 17.7882 11.7484 16.741 11.7484 15.4082C11.7484 14.0754 12.6113 13.0282 13.7094 13.0282Z" fill="white"/>
<path d="M6.9318 26.1691L18.7563 26.1691C20.1358 26.1691 21.2197 27.2163 21.2197 28.5491C21.2197 29.8819 20.1358 30.9291 18.7563 30.9291L6.9318 30.9291C5.55228 30.9291 4.46837 29.8819 4.46837 28.5491C4.46837 27.2163 5.55228 26.1691 6.9318 26.1691Z" fill="white"/>
<path d="M1.7804 38.6862H10.3273C11.3244 38.6862 12.1079 39.7334 12.1079 41.0662C12.1079 42.399 11.3244 43.4462 10.3273 43.4462H1.7804C0.783261 43.4462 -0.000205994 42.399 -0.000205994 41.0662C-0.000205994 39.7334 0.783261 38.6862 1.7804 38.6862Z" fill="white"/>
<path d="M131.623 47.6314C128.769 47.6314 126.583 46.8714 125.063 45.3514C123.543 43.8314 122.783 41.6447 122.783 38.7914C122.783 35.3247 123.756 32.4047 125.703 30.0314C127.649 27.6314 130.236 26.4314 133.463 26.4314C135.303 26.4314 136.796 26.8047 137.943 27.5514C139.089 28.2714 139.663 29.3514 139.663 30.7914C139.663 31.7247 139.289 32.5647 138.543 33.3114C137.796 34.0314 136.956 34.3914 136.023 34.3914C135.809 34.3914 135.543 34.3647 135.223 34.3114C135.303 33.9647 135.343 33.658 135.343 33.3914C135.343 32.4314 135.089 31.618 134.583 30.9514C134.076 30.2847 133.236 29.9514 132.063 29.9514C130.889 29.9514 129.796 30.4314 128.783 31.3914C128.063 33.258 127.703 35.5914 127.703 38.3914C127.703 42.2047 129.143 44.1114 132.023 44.1114C133.569 44.1114 134.716 43.618 135.463 42.6314C136.236 41.618 136.623 40.4847 136.623 39.2314C137.529 39.2314 138.316 39.458 138.983 39.9114C139.649 40.3647 139.983 40.9914 139.983 41.7914C139.983 43.5247 139.089 44.938 137.303 46.0314C135.543 47.098 133.649 47.6314 131.623 47.6314ZM150.786 47.6314C147.853 47.6314 145.693 46.778 144.306 45.0714C142.92 43.338 142.226 40.938 142.226 37.8714C142.226 34.778 143.146 32.098 144.986 29.8314C146.826 27.5647 149.186 26.4314 152.066 26.4314C157.986 26.4314 160.946 29.7647 160.946 36.4314C160.946 39.5514 159.986 42.2047 158.066 44.3914C156.146 46.5514 153.72 47.6314 150.786 47.6314ZM147.906 30.8314C147.426 32.378 147.186 33.9247 147.186 35.4714C147.186 37.018 147.24 38.218 147.346 39.0714C147.453 39.9247 147.653 40.778 147.946 41.6314C148.56 43.3647 149.76 44.2314 151.546 44.2314C153.36 44.2314 154.546 43.7514 155.106 42.7914C155.693 41.8314 155.986 40.3514 155.986 38.3514C155.986 32.6714 154.64 29.8314 151.946 29.8314C150.4 29.8314 149.053 30.1647 147.906 30.8314ZM171.372 47.6314C168.439 47.6314 166.279 46.778 164.892 45.0714C163.506 43.338 162.812 40.938 162.812 37.8714C162.812 34.778 163.732 32.098 165.572 29.8314C167.412 27.5647 169.772 26.4314 172.652 26.4314C178.572 26.4314 181.532 29.7647 181.532 36.4314C181.532 39.5514 180.572 42.2047 178.652 44.3914C176.732 46.5514 174.306 47.6314 171.372 47.6314ZM168.492 30.8314C168.012 32.378 167.772 33.9247 167.772 35.4714C167.772 37.018 167.826 38.218 167.932 39.0714C168.039 39.9247 168.239 40.778 168.532 41.6314C169.146 43.3647 170.346 44.2314 172.132 44.2314C173.946 44.2314 175.132 43.7514 175.692 42.7914C176.279 41.8314 176.572 40.3514 176.572 38.3514C176.572 32.6714 175.226 29.8314 172.532 29.8314C170.986 29.8314 169.639 30.1647 168.492 30.8314ZM189.638 34.5514C190.571 32.578 191.958 30.778 193.798 29.1514C195.665 27.498 197.545 26.6714 199.438 26.6714C202.105 26.6714 203.438 28.0847 203.438 30.9114C203.438 32.3514 202.771 33.898 201.438 35.5514C200.131 37.178 198.665 38.4714 197.038 39.4314C197.785 40.738 198.705 41.738 199.798 42.4314C200.918 43.098 202.385 43.6314 204.198 44.0314C204.198 45.0714 203.945 45.898 203.438 46.5114C202.958 47.098 202.265 47.3914 201.358 47.3914C199.545 47.3914 197.771 46.5247 196.038 44.7914C194.305 43.0314 192.998 41.0714 192.118 38.9114C193.825 38.058 195.291 37.0447 196.518 35.8714C197.771 34.698 198.398 33.5247 198.398 32.3514C198.398 31.178 198.038 30.5914 197.318 30.5914C195.931 30.5914 194.385 31.858 192.678 34.3914C190.998 36.9247 190.025 39.0314 189.758 40.7114C189.811 41.4847 190.078 43.4714 190.558 46.6714C189.731 46.9914 188.825 47.1514 187.838 47.1514C185.785 47.1514 184.758 46.1514 184.758 44.1514C184.758 43.1914 184.905 41.3114 185.198 38.5114C185.491 35.6847 185.638 33.418 185.638 31.7114C185.638 26.0314 185.318 21.338 184.678 17.6314C185.531 17.3114 186.411 17.1514 187.318 17.1514C188.225 17.1514 188.971 17.458 189.558 18.0714C190.171 18.658 190.478 19.4714 190.478 20.5114C190.478 21.5514 190.331 23.698 190.038 26.9514C189.771 30.2047 189.638 32.738 189.638 34.5514ZM206.59 28.8314C207.63 28.3247 208.417 27.7647 208.95 27.1514C209.51 26.538 209.937 25.738 210.23 24.7514C209.057 24.4047 208.47 23.618 208.47 22.3914C208.47 21.6447 208.71 20.6447 209.19 19.3914C210.044 18.9647 210.924 18.7514 211.83 18.7514C212.737 18.7514 213.444 19.018 213.95 19.5514C214.484 20.058 214.75 20.7647 214.75 21.6714C214.75 23.4847 214.097 25.2447 212.79 26.9514C211.484 28.6314 210.004 29.4714 208.35 29.4714C207.684 29.4714 207.097 29.258 206.59 28.8314ZM219.259 43.0714L219.659 34.7514C219.659 32.1647 219.285 29.7114 218.539 27.3914C219.285 27.0714 220.205 26.9114 221.299 26.9114C223.432 26.9114 224.499 28.098 224.499 30.4714C224.499 31.8047 224.352 33.6847 224.059 36.1114C223.765 38.5114 223.619 40.258 223.619 41.3514C223.619 42.6847 224.219 43.3514 225.419 43.3514C226.139 43.3514 226.979 42.7514 227.939 41.5514C228.925 40.3247 229.765 38.9647 230.459 37.4714C231.179 35.9514 231.605 34.7114 231.739 33.7514C231.579 30.818 231.352 28.698 231.059 27.3914C231.912 27.0714 232.779 26.9114 233.659 26.9114C234.565 26.9114 235.312 27.1914 235.899 27.7514C236.512 28.3114 236.819 29.0047 236.819 29.8314C236.819 30.658 236.699 32.0314 236.459 33.9514C236.219 35.8714 236.099 37.8847 236.099 39.9914C236.099 42.0714 236.339 44.298 236.819 46.6714C235.779 46.9914 234.845 47.1514 234.019 47.1514C232.365 47.1514 231.539 46.058 231.539 43.8714C231.539 42.9114 231.645 41.578 231.859 39.8714C230.792 42.138 229.485 43.9647 227.939 45.3514C226.419 46.7114 224.872 47.3914 223.299 47.3914C220.605 47.3914 219.259 45.9514 219.259 43.0714ZM246.049 43.2314C247.142 43.6314 248.409 43.8314 249.849 43.8314C251.289 43.8314 252.556 43.5514 253.649 42.9914C254.956 40.7514 255.609 38.0714 255.609 34.9514C255.609 31.8047 255.062 30.2314 253.969 30.2314C252.609 30.2314 251.076 31.6047 249.369 34.3514C247.689 37.098 246.582 40.058 246.049 43.2314ZM246.049 35.0314C248.876 29.458 252.009 26.6714 255.449 26.6714C257.262 26.6714 258.556 27.418 259.329 28.9114C260.129 30.378 260.529 32.2447 260.529 34.5114C260.529 37.7647 259.569 40.7247 257.649 43.3914C255.729 46.058 253.316 47.3914 250.409 47.3914C248.756 47.3914 247.249 47.1247 245.889 46.5914C245.942 50.2447 246.169 53.5914 246.569 56.6314C245.716 56.9514 244.836 57.1114 243.929 57.1114C243.022 57.1114 242.276 56.8047 241.689 56.1914C241.102 55.6047 240.809 54.698 240.809 53.4714C240.809 52.2447 240.969 50.1514 241.289 47.1914C241.609 44.2314 241.769 41.9114 241.769 40.2314C241.769 34.6847 241.476 30.4047 240.889 27.3914C241.742 27.0714 242.636 26.9114 243.569 26.9114C244.529 26.9114 245.262 27.1914 245.769 27.7514C246.302 28.2847 246.569 29.138 246.569 30.3114C246.569 31.458 246.396 33.0314 246.049 35.0314Z" fill="white"/>
</svg>
